%TF.GenerationSoftware,KiCad,Pcbnew,7.0.6*%
%TF.CreationDate,2023-10-04T19:29:37-04:00*%
%TF.ProjectId,Encoder_Pulse_Generic_ATTINY85,456e636f-6465-4725-9f50-756c73655f47,rev?*%
%TF.SameCoordinates,Original*%
%TF.FileFunction,Soldermask,Top*%
%TF.FilePolarity,Negative*%
%FSLAX46Y46*%
G04 Gerber Fmt 4.6, Leading zero omitted, Abs format (unit mm)*
G04 Created by KiCad (PCBNEW 7.0.6) date 2023-10-04 19:29:37*
%MOMM*%
%LPD*%
G01*
G04 APERTURE LIST*
G04 Aperture macros list*
%AMRoundRect*
0 Rectangle with rounded corners*
0 $1 Rounding radius*
0 $2 $3 $4 $5 $6 $7 $8 $9 X,Y pos of 4 corners*
0 Add a 4 corners polygon primitive as box body*
4,1,4,$2,$3,$4,$5,$6,$7,$8,$9,$2,$3,0*
0 Add four circle primitives for the rounded corners*
1,1,$1+$1,$2,$3*
1,1,$1+$1,$4,$5*
1,1,$1+$1,$6,$7*
1,1,$1+$1,$8,$9*
0 Add four rect primitives between the rounded corners*
20,1,$1+$1,$2,$3,$4,$5,0*
20,1,$1+$1,$4,$5,$6,$7,0*
20,1,$1+$1,$6,$7,$8,$9,0*
20,1,$1+$1,$8,$9,$2,$3,0*%
%AMFreePoly0*
4,1,6,1.000000,0.000000,0.500000,-0.750000,-0.500000,-0.750000,-0.500000,0.750000,0.500000,0.750000,1.000000,0.000000,1.000000,0.000000,$1*%
%AMFreePoly1*
4,1,6,0.500000,-0.750000,-0.650000,-0.750000,-0.150000,0.000000,-0.650000,0.750000,0.500000,0.750000,0.500000,-0.750000,0.500000,-0.750000,$1*%
G04 Aperture macros list end*
%ADD10C,0.990600*%
%ADD11C,0.787400*%
%ADD12RoundRect,0.237500X-0.250000X-0.237500X0.250000X-0.237500X0.250000X0.237500X-0.250000X0.237500X0*%
%ADD13FreePoly0,0.000000*%
%ADD14FreePoly1,0.000000*%
%ADD15R,2.000000X1.500000*%
%ADD16C,1.712000*%
%ADD17RoundRect,0.102000X-0.754000X-0.754000X0.754000X-0.754000X0.754000X0.754000X-0.754000X0.754000X0*%
%ADD18RoundRect,0.237500X0.250000X0.237500X-0.250000X0.237500X-0.250000X-0.237500X0.250000X-0.237500X0*%
%ADD19RoundRect,0.237500X0.237500X-0.250000X0.237500X0.250000X-0.237500X0.250000X-0.237500X-0.250000X0*%
%ADD20RoundRect,0.237500X-0.237500X0.250000X-0.237500X-0.250000X0.237500X-0.250000X0.237500X0.250000X0*%
%ADD21R,1.700000X0.650000*%
%ADD22C,3.600000*%
%ADD23C,6.400000*%
G04 APERTURE END LIST*
D10*
%TO.C,J2*%
X127000000Y-83820000D03*
X124968000Y-83820000D03*
X125984000Y-88900000D03*
D11*
X126619000Y-87630000D03*
X125349000Y-87630000D03*
X126619000Y-86360000D03*
X125349000Y-86360000D03*
X126619000Y-85090000D03*
X125349000Y-85090000D03*
%TD*%
D12*
%TO.C,R5*%
X148035000Y-96520000D03*
X149860000Y-96520000D03*
%TD*%
D13*
%TO.C,JP1*%
X147320000Y-93980000D03*
D14*
X148770000Y-93980000D03*
%TD*%
D15*
%TO.C,SW1*%
X149860000Y-90360000D03*
X149860000Y-82360000D03*
%TD*%
D16*
%TO.C,J1*%
X144455138Y-104060000D03*
X140955138Y-99060000D03*
X137455138Y-104060000D03*
D17*
X133955138Y-99060000D03*
%TD*%
D18*
%TO.C,R4*%
X131365000Y-80927869D03*
X129540000Y-80927869D03*
%TD*%
%TO.C,R3*%
X137352321Y-80966968D03*
X139177321Y-80966968D03*
%TD*%
D19*
%TO.C,R2*%
X144803487Y-91946372D03*
X144803487Y-90121372D03*
%TD*%
D20*
%TO.C,R1*%
X144826975Y-93738517D03*
X144826975Y-95563517D03*
%TD*%
D21*
%TO.C,U1*%
X134620000Y-91440000D03*
X134620000Y-92710000D03*
X134620000Y-93980000D03*
X134620000Y-95250000D03*
X141920000Y-95250000D03*
X141920000Y-93980000D03*
X141920000Y-92710000D03*
X141920000Y-91440000D03*
%TD*%
D22*
%TO.C,REF\u002A\u002A*%
X142000000Y-86200000D03*
D23*
X142000000Y-86200000D03*
%TD*%
D22*
%TO.C,REF\u002A\u002A*%
X134500000Y-86200000D03*
D23*
X134500000Y-86200000D03*
%TD*%
D22*
%TO.C,REF\u002A\u002A*%
X149500000Y-76200000D03*
D23*
X149500000Y-76200000D03*
%TD*%
D22*
%TO.C,REF\u002A\u002A*%
X142000000Y-76200000D03*
D23*
X142000000Y-76200000D03*
%TD*%
D22*
%TO.C,REF\u002A\u002A*%
X134500000Y-76200000D03*
D23*
X134500000Y-76200000D03*
%TD*%
%TO.C,REF\u002A\u002A*%
X127000000Y-76200000D03*
D22*
X127000000Y-76200000D03*
%TD*%
M02*
