%TF.GenerationSoftware,KiCad,Pcbnew,7.0.6*%
%TF.CreationDate,2023-10-04T19:29:37-04:00*%
%TF.ProjectId,Encoder_Pulse_Generic_ATTINY85,456e636f-6465-4725-9f50-756c73655f47,rev?*%
%TF.SameCoordinates,Original*%
%TF.FileFunction,Copper,L1,Top*%
%TF.FilePolarity,Positive*%
%FSLAX46Y46*%
G04 Gerber Fmt 4.6, Leading zero omitted, Abs format (unit mm)*
G04 Created by KiCad (PCBNEW 7.0.6) date 2023-10-04 19:29:37*
%MOMM*%
%LPD*%
G01*
G04 APERTURE LIST*
G04 Aperture macros list*
%AMRoundRect*
0 Rectangle with rounded corners*
0 $1 Rounding radius*
0 $2 $3 $4 $5 $6 $7 $8 $9 X,Y pos of 4 corners*
0 Add a 4 corners polygon primitive as box body*
4,1,4,$2,$3,$4,$5,$6,$7,$8,$9,$2,$3,0*
0 Add four circle primitives for the rounded corners*
1,1,$1+$1,$2,$3*
1,1,$1+$1,$4,$5*
1,1,$1+$1,$6,$7*
1,1,$1+$1,$8,$9*
0 Add four rect primitives between the rounded corners*
20,1,$1+$1,$2,$3,$4,$5,0*
20,1,$1+$1,$4,$5,$6,$7,0*
20,1,$1+$1,$6,$7,$8,$9,0*
20,1,$1+$1,$8,$9,$2,$3,0*%
%AMFreePoly0*
4,1,6,1.000000,0.000000,0.500000,-0.750000,-0.500000,-0.750000,-0.500000,0.750000,0.500000,0.750000,1.000000,0.000000,1.000000,0.000000,$1*%
%AMFreePoly1*
4,1,6,0.500000,-0.750000,-0.650000,-0.750000,-0.150000,0.000000,-0.650000,0.750000,0.500000,0.750000,0.500000,-0.750000,0.500000,-0.750000,$1*%
G04 Aperture macros list end*
%TA.AperFunction,ConnectorPad*%
%ADD10C,0.787400*%
%TD*%
%TA.AperFunction,SMDPad,CuDef*%
%ADD11RoundRect,0.237500X-0.250000X-0.237500X0.250000X-0.237500X0.250000X0.237500X-0.250000X0.237500X0*%
%TD*%
%TA.AperFunction,SMDPad,CuDef*%
%ADD12FreePoly0,0.000000*%
%TD*%
%TA.AperFunction,SMDPad,CuDef*%
%ADD13FreePoly1,0.000000*%
%TD*%
%TA.AperFunction,SMDPad,CuDef*%
%ADD14R,2.000000X1.500000*%
%TD*%
%TA.AperFunction,ComponentPad*%
%ADD15C,1.508000*%
%TD*%
%TA.AperFunction,ComponentPad*%
%ADD16R,1.508000X1.508000*%
%TD*%
%TA.AperFunction,SMDPad,CuDef*%
%ADD17RoundRect,0.237500X0.250000X0.237500X-0.250000X0.237500X-0.250000X-0.237500X0.250000X-0.237500X0*%
%TD*%
%TA.AperFunction,SMDPad,CuDef*%
%ADD18RoundRect,0.237500X0.237500X-0.250000X0.237500X0.250000X-0.237500X0.250000X-0.237500X-0.250000X0*%
%TD*%
%TA.AperFunction,SMDPad,CuDef*%
%ADD19RoundRect,0.237500X-0.237500X0.250000X-0.237500X-0.250000X0.237500X-0.250000X0.237500X0.250000X0*%
%TD*%
%TA.AperFunction,SMDPad,CuDef*%
%ADD20R,1.700000X0.650000*%
%TD*%
%TA.AperFunction,ComponentPad*%
%ADD21C,3.600000*%
%TD*%
%TA.AperFunction,ConnectorPad*%
%ADD22C,6.400000*%
%TD*%
%TA.AperFunction,ViaPad*%
%ADD23C,0.800000*%
%TD*%
%TA.AperFunction,Conductor*%
%ADD24C,0.500000*%
%TD*%
G04 APERTURE END LIST*
D10*
%TO.P,J2,1,SWO*%
%TO.N,/SEL*%
X126619000Y-87630000D03*
%TO.P,J2,2,VCC*%
%TO.N,+5V*%
X125349000Y-87630000D03*
%TO.P,J2,3,SWCLK*%
%TO.N,/SCL*%
X126619000Y-86360000D03*
%TO.P,J2,4,~{RESET}*%
%TO.N,/SDA*%
X125349000Y-86360000D03*
%TO.P,J2,5,SWDIO*%
%TO.N,/RST*%
X126619000Y-85090000D03*
%TO.P,J2,6,GND*%
%TO.N,GND*%
X125349000Y-85090000D03*
%TD*%
D11*
%TO.P,R5,1*%
%TO.N,+5V*%
X148035000Y-96520000D03*
%TO.P,R5,2*%
%TO.N,Net-(JP1-B)*%
X149860000Y-96520000D03*
%TD*%
D12*
%TO.P,JP1,1,A*%
%TO.N,/SEL*%
X147320000Y-93980000D03*
D13*
%TO.P,JP1,2,B*%
%TO.N,Net-(JP1-B)*%
X148770000Y-93980000D03*
%TD*%
D14*
%TO.P,SW1,1,1*%
%TO.N,GND*%
X149860000Y-90360000D03*
%TO.P,SW1,2,2*%
%TO.N,/RST*%
X149860000Y-82360000D03*
%TD*%
D15*
%TO.P,J1,4,Pin_4*%
%TO.N,/SDA*%
X144455138Y-104060000D03*
%TO.P,J1,3,Pin_3*%
%TO.N,/SCL*%
X140955138Y-99060000D03*
%TO.P,J1,2,Pin_2*%
%TO.N,GND*%
X137455138Y-104060000D03*
D16*
%TO.P,J1,1,Pin_1*%
%TO.N,+5V*%
X133955138Y-99060000D03*
%TD*%
D17*
%TO.P,R4,1*%
%TO.N,+5V*%
X131365000Y-80927869D03*
%TO.P,R4,2*%
%TO.N,/ENCA*%
X129540000Y-80927869D03*
%TD*%
%TO.P,R3,2*%
%TO.N,/ENCB*%
X137352321Y-80966968D03*
%TO.P,R3,1*%
%TO.N,+5V*%
X139177321Y-80966968D03*
%TD*%
D18*
%TO.P,R2,1*%
%TO.N,+5V*%
X144803487Y-91946372D03*
%TO.P,R2,2*%
%TO.N,/SCL*%
X144803487Y-90121372D03*
%TD*%
D19*
%TO.P,R1,1*%
%TO.N,+5V*%
X144826975Y-93738517D03*
%TO.P,R1,2*%
%TO.N,/SDA*%
X144826975Y-95563517D03*
%TD*%
D20*
%TO.P,U1,1,~{RESET}/PB5*%
%TO.N,/RST*%
X134620000Y-91440000D03*
%TO.P,U1,2,XTAL1/PB3*%
%TO.N,/ENCB*%
X134620000Y-92710000D03*
%TO.P,U1,3,XTAL2/PB4*%
%TO.N,/ENCA*%
X134620000Y-93980000D03*
%TO.P,U1,4,GND*%
%TO.N,GND*%
X134620000Y-95250000D03*
%TO.P,U1,5,AREF/PB0*%
%TO.N,/SDA*%
X141920000Y-95250000D03*
%TO.P,U1,6,PB1*%
%TO.N,/SEL*%
X141920000Y-93980000D03*
%TO.P,U1,7,PB2*%
%TO.N,/SCL*%
X141920000Y-92710000D03*
%TO.P,U1,8,VCC*%
%TO.N,+5V*%
X141920000Y-91440000D03*
%TD*%
D21*
%TO.P,REF\u002A\u002A,1*%
%TO.N,N/C*%
X142000000Y-86200000D03*
D22*
X142000000Y-86200000D03*
%TD*%
D21*
%TO.P,REF\u002A\u002A,1*%
%TO.N,N/C*%
X134500000Y-86200000D03*
D22*
X134500000Y-86200000D03*
%TD*%
D21*
%TO.P,REF\u002A\u002A,1*%
%TO.N,unconnected-(U1-VCC-Pad8)*%
X149500000Y-76200000D03*
D22*
X149500000Y-76200000D03*
%TD*%
D21*
%TO.P,REF\u002A\u002A,1*%
%TO.N,unconnected-(U1-GND-Pad4)*%
X142000000Y-76200000D03*
D22*
X142000000Y-76200000D03*
%TD*%
D21*
%TO.P,REF\u002A\u002A,1*%
%TO.N,/ENCB*%
X134500000Y-76200000D03*
D22*
X134500000Y-76200000D03*
%TD*%
%TO.P,REF\u002A\u002A,1*%
%TO.N,/ENCA*%
X127000000Y-76200000D03*
D21*
X127000000Y-76200000D03*
%TD*%
D23*
%TO.N,GND*%
X147320000Y-88900000D03*
X134620000Y-96520000D03*
%TO.N,/RST*%
X138245270Y-87814730D03*
X145867042Y-82352498D03*
%TO.N,/SEL*%
X126850500Y-90566520D03*
%TO.N,/SDA*%
X124460000Y-91440000D03*
X124166905Y-87043735D03*
%TO.N,/ENCB*%
X130389500Y-84004601D03*
X133410197Y-80967966D03*
%TO.N,GND*%
X124121814Y-85766296D03*
%TO.N,/SDA*%
X139985792Y-95235573D03*
X127354554Y-95235573D03*
%TO.N,/RST*%
X132706343Y-90391062D03*
X128690500Y-86360000D03*
%TO.N,/SCL*%
X139953639Y-92686439D03*
X126916577Y-91773337D03*
%TO.N,/SEL*%
X147320000Y-91440000D03*
X143403365Y-94004182D03*
%TD*%
D24*
%TO.N,/SCL*%
X139135792Y-93504286D02*
X139953639Y-92686439D01*
X139135792Y-97240654D02*
X139135792Y-93504286D01*
X140955138Y-99060000D02*
X139135792Y-97240654D01*
%TO.N,/SDA*%
X144455138Y-95935354D02*
X144455138Y-104060000D01*
X144826975Y-95563517D02*
X144455138Y-95935354D01*
%TO.N,GND*%
X148780000Y-90360000D02*
X147320000Y-88900000D01*
X149860000Y-90360000D02*
X148780000Y-90360000D01*
X134620000Y-95250000D02*
X134620000Y-96520000D01*
%TO.N,/RST*%
X145874544Y-82360000D02*
X145867042Y-82352498D01*
X149860000Y-82360000D02*
X145874544Y-82360000D01*
%TO.N,/SEL*%
X127000000Y-90417020D02*
X126850500Y-90566520D01*
X127000000Y-90396354D02*
X127000000Y-90417020D01*
%TO.N,/SDA*%
X124850640Y-86360000D02*
X124166905Y-87043735D01*
X125349000Y-86360000D02*
X124850640Y-86360000D01*
%TO.N,/ENCB*%
X133411195Y-80966968D02*
X133410197Y-80967966D01*
X133423199Y-80966968D02*
X133411195Y-80966968D01*
%TO.N,GND*%
X124798110Y-85090000D02*
X124121814Y-85766296D01*
X125349000Y-85090000D02*
X124798110Y-85090000D01*
%TO.N,/SDA*%
X139985792Y-95235573D02*
X141905573Y-95235573D01*
X141905573Y-95235573D02*
X141920000Y-95250000D01*
X124460000Y-92341019D02*
X127354554Y-95235573D01*
X124460000Y-91440000D02*
X124460000Y-92341019D01*
%TO.N,/RST*%
X133571062Y-90391062D02*
X134620000Y-91440000D01*
X132706343Y-90391062D02*
X133571062Y-90391062D01*
X127420500Y-85090000D02*
X128690500Y-86360000D01*
X126619000Y-85090000D02*
X127420500Y-85090000D01*
%TO.N,/SCL*%
X141896439Y-92686439D02*
X141920000Y-92710000D01*
X139953639Y-92686439D02*
X141896439Y-92686439D01*
X127700000Y-90989914D02*
X126916577Y-91773337D01*
X127700000Y-87441000D02*
X127700000Y-90989914D01*
X126619000Y-86360000D02*
X127700000Y-87441000D01*
%TO.N,/SEL*%
X127000000Y-88011000D02*
X127000000Y-90396354D01*
X126619000Y-87630000D02*
X127000000Y-88011000D01*
X141944182Y-94004182D02*
X141920000Y-93980000D01*
X143403365Y-94004182D02*
X141944182Y-94004182D01*
X147320000Y-93980000D02*
X147320000Y-91440000D01*
%TO.N,Net-(JP1-B)*%
X149158718Y-93980000D02*
X149860000Y-94681282D01*
X149860000Y-94681282D02*
X149860000Y-96520000D01*
X148770000Y-93980000D02*
X149158718Y-93980000D01*
%TO.N,/RST*%
X138245270Y-87814730D02*
X134620000Y-91440000D01*
%TO.N,/SDA*%
X144821678Y-95558220D02*
X144826975Y-95563517D01*
X143539666Y-95558220D02*
X144821678Y-95558220D01*
X143231446Y-95250000D02*
X143539666Y-95558220D01*
X141920000Y-95250000D02*
X143231446Y-95250000D01*
%TO.N,/SCL*%
X143445714Y-91479145D02*
X144803487Y-90121372D01*
X143445714Y-92128979D02*
X143445714Y-91479145D01*
X142864693Y-92710000D02*
X143445714Y-92128979D01*
X141920000Y-92710000D02*
X142864693Y-92710000D01*
%TO.N,/ENCB*%
X130385566Y-89745566D02*
X133350000Y-92710000D01*
X133350000Y-92710000D02*
X134620000Y-92710000D01*
X130385566Y-84004601D02*
X130385566Y-89745566D01*
X137352321Y-80966968D02*
X133423199Y-80966968D01*
%TO.N,/ENCA*%
X133270000Y-93980000D02*
X134620000Y-93980000D01*
X129540000Y-90250000D02*
X133270000Y-93980000D01*
X129540000Y-80927869D02*
X129540000Y-90250000D01*
X129540000Y-78740000D02*
X129540000Y-80927869D01*
X127000000Y-76200000D02*
X129540000Y-78740000D01*
%TO.N,/ENCB*%
X137352321Y-79052321D02*
X134500000Y-76200000D01*
X137352321Y-80966968D02*
X137352321Y-79052321D01*
%TD*%
%TA.AperFunction,Conductor*%
%TO.N,+5V*%
G36*
X154174539Y-71140185D02*
G01*
X154220294Y-71192989D01*
X154231500Y-71244500D01*
X154231500Y-83815588D01*
X154230886Y-83824296D01*
X153801270Y-86855475D01*
X152433577Y-96505298D01*
X152426091Y-96533558D01*
X147432688Y-109141161D01*
X147389700Y-109196241D01*
X147323758Y-109219337D01*
X147317401Y-109219500D01*
X129546599Y-109219500D01*
X129479560Y-109199815D01*
X129433805Y-109147011D01*
X129431312Y-109141161D01*
X127418852Y-104060000D01*
X136195846Y-104060000D01*
X136214977Y-104278674D01*
X136271791Y-104490703D01*
X136271792Y-104490706D01*
X136271793Y-104490708D01*
X136364557Y-104689642D01*
X136364561Y-104689650D01*
X136490460Y-104869452D01*
X136490465Y-104869458D01*
X136645679Y-105024672D01*
X136645685Y-105024677D01*
X136825487Y-105150576D01*
X136825489Y-105150577D01*
X136825492Y-105150579D01*
X137024435Y-105243347D01*
X137236464Y-105300161D01*
X137392659Y-105313825D01*
X137455136Y-105319292D01*
X137455138Y-105319292D01*
X137455140Y-105319292D01*
X137509806Y-105314509D01*
X137673812Y-105300161D01*
X137885841Y-105243347D01*
X138084784Y-105150579D01*
X138264595Y-105024674D01*
X138419812Y-104869457D01*
X138545717Y-104689646D01*
X138638485Y-104490703D01*
X138695299Y-104278674D01*
X138714430Y-104060000D01*
X138695299Y-103841326D01*
X138638485Y-103629297D01*
X138545717Y-103430354D01*
X138545715Y-103430351D01*
X138545714Y-103430349D01*
X138419815Y-103250547D01*
X138419810Y-103250541D01*
X138264596Y-103095327D01*
X138264590Y-103095322D01*
X138084788Y-102969423D01*
X138084780Y-102969419D01*
X137885846Y-102876655D01*
X137885844Y-102876654D01*
X137885841Y-102876653D01*
X137735023Y-102836240D01*
X137673813Y-102819839D01*
X137673806Y-102819838D01*
X137455140Y-102800708D01*
X137455136Y-102800708D01*
X137236469Y-102819838D01*
X137236462Y-102819839D01*
X137114040Y-102852642D01*
X137024435Y-102876653D01*
X137024433Y-102876653D01*
X137024429Y-102876655D01*
X136825495Y-102969419D01*
X136825487Y-102969423D01*
X136645685Y-103095322D01*
X136645679Y-103095327D01*
X136490465Y-103250541D01*
X136490460Y-103250547D01*
X136364561Y-103430349D01*
X136364557Y-103430357D01*
X136271793Y-103629291D01*
X136214977Y-103841324D01*
X136214976Y-103841331D01*
X136195846Y-104059997D01*
X136195846Y-104060000D01*
X127418852Y-104060000D01*
X125820608Y-100024672D01*
X125756111Y-99861827D01*
X132701137Y-99861827D01*
X132701138Y-99861844D01*
X132707539Y-99921372D01*
X132707541Y-99921379D01*
X132757783Y-100056086D01*
X132757787Y-100056093D01*
X132843947Y-100171187D01*
X132843950Y-100171190D01*
X132959044Y-100257350D01*
X132959051Y-100257354D01*
X133093758Y-100307596D01*
X133093765Y-100307598D01*
X133153293Y-100313999D01*
X133153310Y-100314000D01*
X133705138Y-100314000D01*
X133705138Y-99495501D01*
X133812823Y-99544680D01*
X133919375Y-99560000D01*
X133990901Y-99560000D01*
X134097453Y-99544680D01*
X134205138Y-99495501D01*
X134205138Y-100314000D01*
X134756966Y-100314000D01*
X134756982Y-100313999D01*
X134816510Y-100307598D01*
X134816517Y-100307596D01*
X134951224Y-100257354D01*
X134951231Y-100257350D01*
X135066325Y-100171190D01*
X135066328Y-100171187D01*
X135152488Y-100056093D01*
X135152492Y-100056086D01*
X135202734Y-99921379D01*
X135202736Y-99921372D01*
X135209137Y-99861844D01*
X135209138Y-99861827D01*
X135209138Y-99310000D01*
X134388824Y-99310000D01*
X134414631Y-99269844D01*
X134455138Y-99131889D01*
X134455138Y-98988111D01*
X134414631Y-98850156D01*
X134388824Y-98810000D01*
X135209138Y-98810000D01*
X135209138Y-98258172D01*
X135209137Y-98258155D01*
X135202736Y-98198627D01*
X135202734Y-98198620D01*
X135152492Y-98063913D01*
X135152488Y-98063906D01*
X135066328Y-97948812D01*
X135066325Y-97948809D01*
X134951231Y-97862649D01*
X134951224Y-97862645D01*
X134816517Y-97812403D01*
X134816510Y-97812401D01*
X134756982Y-97806000D01*
X134205138Y-97806000D01*
X134205138Y-98624498D01*
X134097453Y-98575320D01*
X133990901Y-98560000D01*
X133919375Y-98560000D01*
X133812823Y-98575320D01*
X133705138Y-98624498D01*
X133705138Y-97806000D01*
X133153293Y-97806000D01*
X133093765Y-97812401D01*
X133093758Y-97812403D01*
X132959051Y-97862645D01*
X132959044Y-97862649D01*
X132843950Y-97948809D01*
X132843947Y-97948812D01*
X132757787Y-98063906D01*
X132757783Y-98063913D01*
X132707541Y-98198620D01*
X132707539Y-98198627D01*
X132701138Y-98258155D01*
X132701137Y-98258172D01*
X132701137Y-98810000D01*
X133521452Y-98810000D01*
X133495645Y-98850156D01*
X133455138Y-98988111D01*
X133455138Y-99131889D01*
X133495645Y-99269844D01*
X133521452Y-99310000D01*
X132701138Y-99310000D01*
X132701137Y-99861827D01*
X125756111Y-99861827D01*
X124437193Y-96531756D01*
X124430301Y-96507262D01*
X124429961Y-96505298D01*
X123840310Y-93101403D01*
X123848263Y-93031990D01*
X123892482Y-92977893D01*
X123958928Y-92956291D01*
X124026506Y-92974042D01*
X124050171Y-92992559D01*
X126441782Y-95384168D01*
X126472032Y-95433531D01*
X126527372Y-95603850D01*
X126527375Y-95603857D01*
X126622021Y-95767789D01*
X126748682Y-95908460D01*
X126748683Y-95908461D01*
X126901819Y-96019721D01*
X126901824Y-96019724D01*
X127074746Y-96096715D01*
X127074751Y-96096717D01*
X127259908Y-96136073D01*
X127259909Y-96136073D01*
X127449198Y-96136073D01*
X127449200Y-96136073D01*
X127634357Y-96096717D01*
X127807284Y-96019724D01*
X127960425Y-95908461D01*
X128087087Y-95767789D01*
X128181733Y-95603857D01*
X128240228Y-95423829D01*
X128260014Y-95235573D01*
X128240228Y-95047317D01*
X128181733Y-94867289D01*
X128087087Y-94703357D01*
X127960425Y-94562685D01*
X127960424Y-94562684D01*
X127807288Y-94451424D01*
X127807283Y-94451421D01*
X127634361Y-94374430D01*
X127634356Y-94374428D01*
X127569223Y-94360584D01*
X127507741Y-94327391D01*
X127507323Y-94326975D01*
X125246818Y-92066469D01*
X125213333Y-92005146D01*
X125210499Y-91978788D01*
X125210499Y-91974322D01*
X125227112Y-91912321D01*
X125287179Y-91808284D01*
X125345674Y-91628256D01*
X125365460Y-91440000D01*
X125345674Y-91251744D01*
X125287179Y-91071716D01*
X125192533Y-90907784D01*
X125065871Y-90767112D01*
X125053071Y-90757812D01*
X124912734Y-90655851D01*
X124912729Y-90655848D01*
X124739807Y-90578857D01*
X124739802Y-90578855D01*
X124594001Y-90547865D01*
X124554646Y-90539500D01*
X124365354Y-90539500D01*
X124332897Y-90546398D01*
X124180197Y-90578855D01*
X124180192Y-90578857D01*
X124007270Y-90655848D01*
X124007265Y-90655851D01*
X123854129Y-90767111D01*
X123727465Y-90907785D01*
X123693114Y-90967284D01*
X123642547Y-91015500D01*
X123573940Y-91028722D01*
X123509075Y-91002754D01*
X123468547Y-90945840D01*
X123463547Y-90926449D01*
X122569661Y-85766296D01*
X123216354Y-85766296D01*
X123236140Y-85954552D01*
X123236141Y-85954555D01*
X123294632Y-86134573D01*
X123294635Y-86134580D01*
X123389278Y-86298508D01*
X123389279Y-86298510D01*
X123389281Y-86298512D01*
X123433015Y-86347083D01*
X123463244Y-86410073D01*
X123454619Y-86479408D01*
X123437626Y-86505853D01*
X123438191Y-86506263D01*
X123434369Y-86511522D01*
X123339726Y-86675450D01*
X123339723Y-86675457D01*
X123281232Y-86855475D01*
X123281231Y-86855479D01*
X123261445Y-87043735D01*
X123281231Y-87231991D01*
X123281232Y-87231994D01*
X123339723Y-87412012D01*
X123339726Y-87412019D01*
X123434372Y-87575951D01*
X123500763Y-87649685D01*
X123561034Y-87716623D01*
X123714170Y-87827883D01*
X123714175Y-87827886D01*
X123887097Y-87904877D01*
X123887102Y-87904879D01*
X124072259Y-87944235D01*
X124072260Y-87944235D01*
X124261549Y-87944235D01*
X124261551Y-87944235D01*
X124386059Y-87917770D01*
X124455724Y-87923086D01*
X124511458Y-87965223D01*
X124524272Y-87990080D01*
X124525424Y-87989568D01*
X124528066Y-87995503D01*
X124565355Y-88060089D01*
X124565356Y-88060090D01*
X125137319Y-87488127D01*
X125198642Y-87454642D01*
X125268334Y-87459626D01*
X125324267Y-87501498D01*
X125348684Y-87566962D01*
X125349000Y-87575808D01*
X125349000Y-87630000D01*
X125403190Y-87630000D01*
X125470229Y-87649685D01*
X125515984Y-87702489D01*
X125525928Y-87771647D01*
X125496903Y-87835203D01*
X125490871Y-87841681D01*
X124916732Y-88415818D01*
X125071312Y-88484641D01*
X125182783Y-88508335D01*
X125244265Y-88541527D01*
X125278041Y-88602690D01*
X125275793Y-88665188D01*
X125244532Y-88769608D01*
X125244530Y-88769616D01*
X125236936Y-88899999D01*
X125234393Y-88943660D01*
X125264668Y-89115354D01*
X125333721Y-89275438D01*
X125333722Y-89275440D01*
X125333724Y-89275443D01*
X125433671Y-89409694D01*
X125437832Y-89415283D01*
X125571386Y-89527349D01*
X125727185Y-89605594D01*
X125896829Y-89645800D01*
X125896831Y-89645800D01*
X126027429Y-89645800D01*
X126027436Y-89645800D01*
X126111105Y-89636020D01*
X126179975Y-89647788D01*
X126231551Y-89694922D01*
X126249500Y-89759181D01*
X126249500Y-89840622D01*
X126229815Y-89907661D01*
X126217650Y-89923594D01*
X126117966Y-90034304D01*
X126023321Y-90198235D01*
X126023318Y-90198242D01*
X125981718Y-90326275D01*
X125964826Y-90378264D01*
X125945040Y-90566520D01*
X125964826Y-90754776D01*
X125965812Y-90757812D01*
X126023318Y-90934797D01*
X126023321Y-90934804D01*
X126117966Y-91098735D01*
X126148034Y-91132129D01*
X126178264Y-91195121D01*
X126169638Y-91264456D01*
X126163271Y-91277101D01*
X126089398Y-91405052D01*
X126089395Y-91405059D01*
X126030904Y-91585077D01*
X126030903Y-91585081D01*
X126011117Y-91773337D01*
X126030903Y-91961593D01*
X126030904Y-91961596D01*
X126089395Y-92141614D01*
X126089398Y-92141621D01*
X126184044Y-92305553D01*
X126310706Y-92446225D01*
X126463842Y-92557485D01*
X126463847Y-92557488D01*
X126636769Y-92634479D01*
X126636774Y-92634481D01*
X126821931Y-92673837D01*
X126821932Y-92673837D01*
X127011221Y-92673837D01*
X127011223Y-92673837D01*
X127196380Y-92634481D01*
X127369307Y-92557488D01*
X127522448Y-92446225D01*
X127649110Y-92305553D01*
X127743756Y-92141621D01*
X127799099Y-91971292D01*
X127829346Y-91921934D01*
X128185641Y-91565638D01*
X128199260Y-91553868D01*
X128218530Y-91539524D01*
X128252123Y-91499488D01*
X128255757Y-91495522D01*
X128261590Y-91489691D01*
X128281923Y-91463974D01*
X128331302Y-91405128D01*
X128331309Y-91405112D01*
X128335272Y-91399090D01*
X128335324Y-91399124D01*
X128339371Y-91392772D01*
X128339317Y-91392739D01*
X128343104Y-91386598D01*
X128343110Y-91386591D01*
X128375561Y-91317000D01*
X128395599Y-91277101D01*
X128410040Y-91248347D01*
X128410042Y-91248335D01*
X128412510Y-91241558D01*
X128412568Y-91241579D01*
X128415043Y-91234460D01*
X128414985Y-91234441D01*
X128417256Y-91227586D01*
X128418676Y-91220712D01*
X128432784Y-91152381D01*
X128450500Y-91077635D01*
X128450500Y-91077634D01*
X128451339Y-91070462D01*
X128451397Y-91070468D01*
X128452164Y-91062970D01*
X128452104Y-91062965D01*
X128452733Y-91055774D01*
X128450500Y-90979017D01*
X128450500Y-87504705D01*
X128451809Y-87486735D01*
X128452129Y-87484547D01*
X128455289Y-87462977D01*
X128450735Y-87410931D01*
X128450500Y-87405528D01*
X128450500Y-87397296D01*
X128450499Y-87397286D01*
X128450459Y-87396941D01*
X128450474Y-87396852D01*
X128450290Y-87393694D01*
X128451021Y-87393651D01*
X128462226Y-87328069D01*
X128509360Y-87276492D01*
X128576897Y-87258586D01*
X128589369Y-87260066D01*
X128589395Y-87259821D01*
X128595853Y-87260500D01*
X128665500Y-87260500D01*
X128732539Y-87280185D01*
X128778294Y-87332989D01*
X128789500Y-87384500D01*
X128789500Y-90186294D01*
X128788191Y-90204263D01*
X128784710Y-90228025D01*
X128789264Y-90280064D01*
X128789500Y-90285470D01*
X128789500Y-90293709D01*
X128792508Y-90319451D01*
X128793306Y-90326274D01*
X128800000Y-90402791D01*
X128801461Y-90409867D01*
X128801403Y-90409878D01*
X128803034Y-90417237D01*
X128803092Y-90417224D01*
X128804757Y-90424250D01*
X128831025Y-90496424D01*
X128855185Y-90569331D01*
X128858236Y-90575874D01*
X128858182Y-90575898D01*
X128861470Y-90582688D01*
X128861521Y-90582663D01*
X128864761Y-90589113D01*
X128864762Y-90589114D01*
X128864763Y-90589117D01*
X128885997Y-90621402D01*
X128906965Y-90653283D01*
X128947287Y-90718655D01*
X128951766Y-90724319D01*
X128951719Y-90724356D01*
X128956482Y-90730202D01*
X128956528Y-90730164D01*
X128961173Y-90735700D01*
X129017017Y-90788386D01*
X129017018Y-90788386D01*
X130857388Y-92628756D01*
X132694267Y-94465634D01*
X132706048Y-94479266D01*
X132720390Y-94498530D01*
X132760420Y-94532119D01*
X132764392Y-94535759D01*
X132770224Y-94541591D01*
X132770227Y-94541594D01*
X132795947Y-94561931D01*
X132854788Y-94611304D01*
X132860818Y-94615270D01*
X132860785Y-94615319D01*
X132867143Y-94619369D01*
X132867175Y-94619319D01*
X132873320Y-94623109D01*
X132873323Y-94623111D01*
X132942936Y-94655572D01*
X133011567Y-94690040D01*
X133011572Y-94690041D01*
X133018361Y-94692513D01*
X133018340Y-94692570D01*
X133025455Y-94695043D01*
X133025475Y-94694986D01*
X133032330Y-94697258D01*
X133107557Y-94712790D01*
X133107558Y-94712790D01*
X133176327Y-94729089D01*
X133237018Y-94763703D01*
X133269362Y-94825635D01*
X133271019Y-94862996D01*
X133269500Y-94877123D01*
X133269500Y-95622870D01*
X133269501Y-95622876D01*
X133275908Y-95682483D01*
X133326202Y-95817328D01*
X133326206Y-95817335D01*
X133412452Y-95932544D01*
X133412455Y-95932547D01*
X133527664Y-96018793D01*
X133527671Y-96018797D01*
X133662517Y-96069091D01*
X133670062Y-96070874D01*
X133669770Y-96072107D01*
X133727027Y-96095820D01*
X133766879Y-96153210D01*
X133769377Y-96223035D01*
X133767158Y-96230693D01*
X133734327Y-96331738D01*
X133734327Y-96331740D01*
X133734326Y-96331744D01*
X133714540Y-96520000D01*
X133734326Y-96708256D01*
X133734327Y-96708259D01*
X133792818Y-96888277D01*
X133792821Y-96888284D01*
X133887467Y-97052216D01*
X133904847Y-97071518D01*
X134014129Y-97192888D01*
X134167265Y-97304148D01*
X134167270Y-97304151D01*
X134340192Y-97381142D01*
X134340197Y-97381144D01*
X134525354Y-97420500D01*
X134525355Y-97420500D01*
X134714644Y-97420500D01*
X134714646Y-97420500D01*
X134899803Y-97381144D01*
X135072730Y-97304151D01*
X135225871Y-97192888D01*
X135352533Y-97052216D01*
X135447179Y-96888284D01*
X135505674Y-96708256D01*
X135525460Y-96520000D01*
X135505674Y-96331744D01*
X135472841Y-96230695D01*
X135470846Y-96160854D01*
X135506926Y-96101021D01*
X135569627Y-96070193D01*
X135577473Y-96069093D01*
X135577479Y-96069092D01*
X135577481Y-96069091D01*
X135577483Y-96069091D01*
X135712331Y-96018796D01*
X135827546Y-95932546D01*
X135913796Y-95817331D01*
X135964091Y-95682483D01*
X135970500Y-95622873D01*
X135970499Y-94877128D01*
X135964091Y-94817517D01*
X135958290Y-94801965D01*
X135913797Y-94682671D01*
X135909546Y-94674886D01*
X135912724Y-94673150D01*
X135894344Y-94623741D01*
X135909253Y-94555480D01*
X135909866Y-94554526D01*
X135913793Y-94547335D01*
X135913792Y-94547335D01*
X135913796Y-94547331D01*
X135964091Y-94412483D01*
X135970500Y-94352873D01*
X135970499Y-93607128D01*
X135964091Y-93547517D01*
X135959632Y-93535561D01*
X135913797Y-93412670D01*
X135909547Y-93404888D01*
X135912757Y-93403134D01*
X135894361Y-93354001D01*
X135909127Y-93285709D01*
X135909752Y-93284736D01*
X135913797Y-93277329D01*
X135943744Y-93197036D01*
X135964091Y-93142483D01*
X135970500Y-93082873D01*
X135970499Y-92337128D01*
X135964091Y-92277517D01*
X135964091Y-92277516D01*
X135913797Y-92142670D01*
X135909547Y-92134888D01*
X135912757Y-92133134D01*
X135894361Y-92084001D01*
X135909127Y-92015709D01*
X135909752Y-92014736D01*
X135913797Y-92007329D01*
X135926108Y-91974321D01*
X135964091Y-91872483D01*
X135970500Y-91812873D01*
X135970499Y-91202228D01*
X135974089Y-91190000D01*
X140570000Y-91190000D01*
X141670000Y-91190000D01*
X141670000Y-90615000D01*
X141022155Y-90615000D01*
X140962627Y-90621401D01*
X140962620Y-90621403D01*
X140827913Y-90671645D01*
X140827906Y-90671649D01*
X140712812Y-90757809D01*
X140712809Y-90757812D01*
X140626649Y-90872906D01*
X140626645Y-90872913D01*
X140576403Y-91007620D01*
X140576401Y-91007627D01*
X140570000Y-91067155D01*
X140570000Y-91190000D01*
X135974089Y-91190000D01*
X135990183Y-91135190D01*
X136006813Y-91114553D01*
X138398041Y-88723325D01*
X138459362Y-88689842D01*
X138459718Y-88689764D01*
X138525073Y-88675874D01*
X138698000Y-88598881D01*
X138851141Y-88487618D01*
X138880185Y-88455361D01*
X138939670Y-88418714D01*
X139009527Y-88420043D01*
X139067576Y-88458930D01*
X139068674Y-88460267D01*
X139246219Y-88679516D01*
X139520484Y-88953781D01*
X139520488Y-88953784D01*
X139821917Y-89197877D01*
X140083374Y-89367669D01*
X140147211Y-89409125D01*
X140492806Y-89585214D01*
X140854913Y-89724214D01*
X141229567Y-89824602D01*
X141612662Y-89885278D01*
X141978576Y-89904455D01*
X141999999Y-89905578D01*
X142000000Y-89905578D01*
X142000001Y-89905578D01*
X142020300Y-89904514D01*
X142387338Y-89885278D01*
X142770433Y-89824602D01*
X143145087Y-89724214D01*
X143507194Y-89585214D01*
X143690815Y-89491654D01*
X143759482Y-89478759D01*
X143824223Y-89505035D01*
X143864480Y-89562142D01*
X143867472Y-89631947D01*
X143864814Y-89641143D01*
X143838313Y-89721116D01*
X143838312Y-89721120D01*
X143827987Y-89822187D01*
X143827987Y-89984140D01*
X143808302Y-90051179D01*
X143791668Y-90071821D01*
X143190863Y-90672625D01*
X143129540Y-90706110D01*
X143059848Y-90701126D01*
X143028868Y-90684209D01*
X143012089Y-90671648D01*
X142877376Y-90621402D01*
X142877372Y-90621401D01*
X142817844Y-90615000D01*
X142170000Y-90615000D01*
X142170000Y-91566000D01*
X142150315Y-91633039D01*
X142097511Y-91678794D01*
X142046000Y-91690000D01*
X140570000Y-91690000D01*
X140570000Y-91784198D01*
X140550315Y-91851237D01*
X140497511Y-91896992D01*
X140428353Y-91906936D01*
X140395564Y-91897477D01*
X140233446Y-91825296D01*
X140233441Y-91825294D01*
X140087639Y-91794304D01*
X140048285Y-91785939D01*
X139858993Y-91785939D01*
X139826536Y-91792837D01*
X139673836Y-91825294D01*
X139673831Y-91825296D01*
X139500909Y-91902287D01*
X139500904Y-91902290D01*
X139347768Y-92013550D01*
X139221105Y-92154224D01*
X139126460Y-92318154D01*
X139126458Y-92318158D01*
X139071118Y-92488478D01*
X139040868Y-92537840D01*
X138650150Y-92928558D01*
X138636521Y-92940337D01*
X138617260Y-92954676D01*
X138583690Y-92994683D01*
X138580045Y-92998662D01*
X138574201Y-93004508D01*
X138553851Y-93030245D01*
X138504487Y-93089075D01*
X138500521Y-93095105D01*
X138500474Y-93095074D01*
X138496422Y-93101433D01*
X138496471Y-93101463D01*
X138492681Y-93107607D01*
X138460216Y-93177227D01*
X138425752Y-93245852D01*
X138423280Y-93252643D01*
X138423224Y-93252622D01*
X138420752Y-93259736D01*
X138420807Y-93259755D01*
X138418534Y-93266613D01*
X138410767Y-93304232D01*
X138402999Y-93341851D01*
X138389793Y-93397570D01*
X138385290Y-93416572D01*
X138384453Y-93423740D01*
X138384393Y-93423733D01*
X138383627Y-93431231D01*
X138383687Y-93431237D01*
X138383057Y-93438426D01*
X138385292Y-93515202D01*
X138385292Y-97176948D01*
X138383983Y-97194917D01*
X138380502Y-97218679D01*
X138385056Y-97270718D01*
X138385292Y-97276124D01*
X138385292Y-97284363D01*
X138389098Y-97316928D01*
X138395792Y-97393445D01*
X138397253Y-97400521D01*
X138397195Y-97400532D01*
X138398826Y-97407891D01*
X138398884Y-97407878D01*
X138400549Y-97414904D01*
X138426817Y-97487078D01*
X138450977Y-97559985D01*
X138454028Y-97566528D01*
X138453974Y-97566552D01*
X138457262Y-97573342D01*
X138457313Y-97573317D01*
X138460553Y-97579767D01*
X138460554Y-97579768D01*
X138460555Y-97579771D01*
X138502756Y-97643936D01*
X138502757Y-97643937D01*
X138543079Y-97709309D01*
X138547558Y-97714973D01*
X138547511Y-97715010D01*
X138552274Y-97720856D01*
X138552320Y-97720818D01*
X138556965Y-97726354D01*
X138612809Y-97779039D01*
X139670881Y-98837111D01*
X139704366Y-98898434D01*
X139706728Y-98935598D01*
X139695846Y-99059997D01*
X139695846Y-99060000D01*
X139714977Y-99278674D01*
X139771791Y-99490703D01*
X139771792Y-99490706D01*
X139771793Y-99490708D01*
X139864557Y-99689642D01*
X139864561Y-99689650D01*
X139990460Y-99869452D01*
X139990465Y-99869458D01*
X140145679Y-100024672D01*
X140145685Y-100024677D01*
X140325487Y-100150576D01*
X140325489Y-100150577D01*
X140325492Y-100150579D01*
X140524435Y-100243347D01*
X140736464Y-100300161D01*
X140892659Y-100313826D01*
X140955136Y-100319292D01*
X140955138Y-100319292D01*
X140955140Y-100319292D01*
X141015639Y-100313999D01*
X141173812Y-100300161D01*
X141385841Y-100243347D01*
X141584784Y-100150579D01*
X141764595Y-100024674D01*
X141919812Y-99869457D01*
X142045717Y-99689646D01*
X142138485Y-99490703D01*
X142195299Y-99278674D01*
X142214430Y-99060000D01*
X142195299Y-98841326D01*
X142138485Y-98629297D01*
X142045717Y-98430354D01*
X142045715Y-98430351D01*
X142045714Y-98430349D01*
X141919815Y-98250547D01*
X141919810Y-98250541D01*
X141764596Y-98095327D01*
X141764590Y-98095322D01*
X141584788Y-97969423D01*
X141584780Y-97969419D01*
X141385846Y-97876655D01*
X141385844Y-97876654D01*
X141385841Y-97876653D01*
X141235023Y-97836240D01*
X141173813Y-97819839D01*
X141173806Y-97819838D01*
X140955140Y-97800708D01*
X140955135Y-97800708D01*
X140830736Y-97811590D01*
X140762236Y-97797823D01*
X140732249Y-97775743D01*
X139922611Y-96966105D01*
X139889126Y-96904782D01*
X139886292Y-96878424D01*
X139886292Y-96260073D01*
X139905977Y-96193034D01*
X139958781Y-96147279D01*
X140010292Y-96136073D01*
X140080436Y-96136073D01*
X140080438Y-96136073D01*
X140265595Y-96096717D01*
X140438522Y-96019724D01*
X140440568Y-96018237D01*
X140452244Y-96009755D01*
X140518050Y-95986275D01*
X140525129Y-95986073D01*
X140742685Y-95986073D01*
X140809724Y-96005758D01*
X140816997Y-96010807D01*
X140827668Y-96018795D01*
X140827671Y-96018797D01*
X140962517Y-96069091D01*
X140962516Y-96069091D01*
X140969444Y-96069835D01*
X141022127Y-96075500D01*
X142817872Y-96075499D01*
X142877483Y-96069091D01*
X142881398Y-96067630D01*
X142884642Y-96067398D01*
X142885025Y-96067308D01*
X142885039Y-96067370D01*
X142951085Y-96062642D01*
X143004443Y-96088822D01*
X143030075Y-96110331D01*
X143034063Y-96113986D01*
X143039882Y-96119805D01*
X143039886Y-96119808D01*
X143039889Y-96119811D01*
X143065625Y-96140160D01*
X143124452Y-96189522D01*
X143124453Y-96189522D01*
X143124455Y-96189524D01*
X143130484Y-96193490D01*
X143130451Y-96193539D01*
X143136813Y-96197592D01*
X143136845Y-96197541D01*
X143142985Y-96201328D01*
X143142989Y-96201331D01*
X143177798Y-96217563D01*
X143212607Y-96233795D01*
X143264931Y-96260073D01*
X143281233Y-96268260D01*
X143281235Y-96268260D01*
X143288023Y-96270731D01*
X143288002Y-96270787D01*
X143295123Y-96273263D01*
X143295142Y-96273206D01*
X143301988Y-96275474D01*
X143301993Y-96275477D01*
X143301998Y-96275478D01*
X143302001Y-96275479D01*
X143377230Y-96291012D01*
X143377231Y-96291012D01*
X143451945Y-96308720D01*
X143451948Y-96308720D01*
X143451952Y-96308721D01*
X143459119Y-96309559D01*
X143459112Y-96309618D01*
X143466610Y-96310384D01*
X143466616Y-96310325D01*
X143473805Y-96310954D01*
X143473809Y-96310953D01*
X143473810Y-96310954D01*
X143550583Y-96308720D01*
X143580638Y-96308720D01*
X143647677Y-96328405D01*
X143693432Y-96381209D01*
X143704638Y-96432720D01*
X143704638Y-102989493D01*
X143684953Y-103056532D01*
X143651765Y-103091065D01*
X143645688Y-103095319D01*
X143645677Y-103095329D01*
X143490465Y-103250541D01*
X143490460Y-103250547D01*
X143364561Y-103430349D01*
X143364557Y-103430357D01*
X143271793Y-103629291D01*
X143214977Y-103841324D01*
X143214976Y-103841331D01*
X143195846Y-104059997D01*
X143195846Y-104060000D01*
X143214977Y-104278674D01*
X143271791Y-104490703D01*
X143271792Y-104490706D01*
X143271793Y-104490708D01*
X143364557Y-104689642D01*
X143364561Y-104689650D01*
X143490460Y-104869452D01*
X143490465Y-104869458D01*
X143645679Y-105024672D01*
X143645685Y-105024677D01*
X143825487Y-105150576D01*
X143825489Y-105150577D01*
X143825492Y-105150579D01*
X144024435Y-105243347D01*
X144236464Y-105300161D01*
X144392659Y-105313825D01*
X144455136Y-105319292D01*
X144455138Y-105319292D01*
X144455140Y-105319292D01*
X144509806Y-105314509D01*
X144673812Y-105300161D01*
X144885841Y-105243347D01*
X145084784Y-105150579D01*
X145264595Y-105024674D01*
X145419812Y-104869457D01*
X145545717Y-104689646D01*
X145638485Y-104490703D01*
X145695299Y-104278674D01*
X145714430Y-104060000D01*
X145695299Y-103841326D01*
X145638485Y-103629297D01*
X145545717Y-103430354D01*
X145545715Y-103430351D01*
X145545714Y-103430349D01*
X145419815Y-103250547D01*
X145419810Y-103250541D01*
X145264598Y-103095329D01*
X145264587Y-103095319D01*
X145258511Y-103091065D01*
X145214888Y-103036486D01*
X145205638Y-102989493D01*
X145205638Y-96770000D01*
X147047501Y-96770000D01*
X147047501Y-96806654D01*
X147057819Y-96907652D01*
X147112046Y-97071300D01*
X147112051Y-97071311D01*
X147202552Y-97218034D01*
X147202555Y-97218038D01*
X147324461Y-97339944D01*
X147324465Y-97339947D01*
X147471188Y-97430448D01*
X147471199Y-97430453D01*
X147634847Y-97484680D01*
X147735851Y-97494999D01*
X147784999Y-97494998D01*
X147785000Y-97494998D01*
X147785000Y-96770000D01*
X147047501Y-96770000D01*
X145205638Y-96770000D01*
X145205638Y-96633743D01*
X145225323Y-96566704D01*
X145278127Y-96520949D01*
X145290622Y-96516041D01*
X145378491Y-96486925D01*
X145525325Y-96396357D01*
X145647315Y-96274367D01*
X145650009Y-96270000D01*
X147047500Y-96270000D01*
X147785000Y-96270000D01*
X147785000Y-95545000D01*
X147784999Y-95544999D01*
X147735861Y-95545000D01*
X147735843Y-95545001D01*
X147634847Y-95555319D01*
X147471199Y-95609546D01*
X147471188Y-95609551D01*
X147324465Y-95700052D01*
X147324461Y-95700055D01*
X147202555Y-95821961D01*
X147202552Y-95821965D01*
X147112051Y-95968688D01*
X147112046Y-95968699D01*
X147057819Y-96132347D01*
X147047500Y-96233345D01*
X147047500Y-96270000D01*
X145650009Y-96270000D01*
X145737883Y-96127533D01*
X145792149Y-95963770D01*
X145802475Y-95862694D01*
X145802474Y-95264341D01*
X145799535Y-95235573D01*
X145792149Y-95163264D01*
X145758304Y-95061128D01*
X145737883Y-94999501D01*
X145647315Y-94852667D01*
X145532992Y-94738344D01*
X145528436Y-94730000D01*
X146314353Y-94730000D01*
X146319499Y-94801960D01*
X146319500Y-94801965D01*
X146360045Y-94940050D01*
X146360047Y-94940053D01*
X146437857Y-95061128D01*
X146546627Y-95155377D01*
X146677543Y-95215165D01*
X146820000Y-95235647D01*
X146820003Y-95235647D01*
X147820000Y-95235647D01*
X147883541Y-95231639D01*
X147930114Y-95218808D01*
X147980692Y-95215618D01*
X148011892Y-95220103D01*
X148120000Y-95235647D01*
X148985500Y-95235647D01*
X149052539Y-95255332D01*
X149098294Y-95308136D01*
X149109500Y-95359647D01*
X149109500Y-95687947D01*
X149089815Y-95754986D01*
X149073181Y-95775628D01*
X149034827Y-95813982D01*
X148973504Y-95847467D01*
X148903812Y-95842483D01*
X148859465Y-95813982D01*
X148745538Y-95700055D01*
X148745534Y-95700052D01*
X148598811Y-95609551D01*
X148598800Y-95609546D01*
X148435152Y-95555319D01*
X148334154Y-95545000D01*
X148285000Y-95545000D01*
X148285000Y-97494999D01*
X148334140Y-97494999D01*
X148334154Y-97494998D01*
X148435152Y-97484680D01*
X148598800Y-97430453D01*
X148598811Y-97430448D01*
X148745533Y-97339948D01*
X148859464Y-97226017D01*
X148920787Y-97192532D01*
X148990479Y-97197516D01*
X149034827Y-97226017D01*
X149149150Y-97340340D01*
X149295984Y-97430908D01*
X149459747Y-97485174D01*
X149560823Y-97495500D01*
X150159176Y-97495499D01*
X150159184Y-97495498D01*
X150159187Y-97495498D01*
X150214530Y-97489844D01*
X150260253Y-97485174D01*
X150424016Y-97430908D01*
X150570850Y-97340340D01*
X150692840Y-97218350D01*
X150783408Y-97071516D01*
X150837674Y-96907753D01*
X150848000Y-96806677D01*
X150847999Y-96233324D01*
X150847730Y-96230695D01*
X150837674Y-96132247D01*
X150830412Y-96110331D01*
X150783408Y-95968484D01*
X150692840Y-95821650D01*
X150646818Y-95775628D01*
X150613334Y-95714306D01*
X150610500Y-95687948D01*
X150610500Y-94744987D01*
X150611809Y-94727018D01*
X150615274Y-94703358D01*
X150615289Y-94703259D01*
X150614132Y-94690039D01*
X150610736Y-94651216D01*
X150610500Y-94645810D01*
X150610500Y-94637579D01*
X150610500Y-94637573D01*
X150606693Y-94605006D01*
X150599999Y-94528485D01*
X150599999Y-94528483D01*
X150598539Y-94521411D01*
X150598597Y-94521398D01*
X150596965Y-94514039D01*
X150596906Y-94514054D01*
X150595242Y-94507035D01*
X150595241Y-94507027D01*
X150568974Y-94434858D01*
X150544814Y-94361948D01*
X150544809Y-94361941D01*
X150541760Y-94355400D01*
X150541815Y-94355373D01*
X150538533Y-94348595D01*
X150538480Y-94348622D01*
X150535235Y-94342162D01*
X150493028Y-94277990D01*
X150452710Y-94212624D01*
X150448234Y-94206964D01*
X150448281Y-94206926D01*
X150443519Y-94201081D01*
X150443474Y-94201120D01*
X150438834Y-94195591D01*
X150438832Y-94195589D01*
X150438830Y-94195586D01*
X150408061Y-94166557D01*
X150382965Y-94142879D01*
X149811966Y-93571880D01*
X149778481Y-93510557D01*
X149775647Y-93484199D01*
X149775647Y-93230000D01*
X149770500Y-93158039D01*
X149770499Y-93158034D01*
X149729954Y-93019949D01*
X149729953Y-93019947D01*
X149652143Y-92898872D01*
X149543373Y-92804623D01*
X149505586Y-92787366D01*
X149412456Y-92744834D01*
X149305812Y-92729502D01*
X149270000Y-92724353D01*
X148194500Y-92724353D01*
X148127461Y-92704668D01*
X148081706Y-92651864D01*
X148070500Y-92600353D01*
X148070500Y-91974321D01*
X148087113Y-91912321D01*
X148090222Y-91906936D01*
X148147179Y-91808284D01*
X148205674Y-91628256D01*
X148223965Y-91454216D01*
X148250548Y-91389606D01*
X148307845Y-91349621D01*
X148377664Y-91346961D01*
X148437838Y-91382470D01*
X148446551Y-91392870D01*
X148502455Y-91467547D01*
X148617664Y-91553793D01*
X148617671Y-91553797D01*
X148752517Y-91604091D01*
X148752516Y-91604091D01*
X148759444Y-91604835D01*
X148812127Y-91610500D01*
X150907872Y-91610499D01*
X150967483Y-91604091D01*
X151102331Y-91553796D01*
X151217546Y-91467546D01*
X151303796Y-91352331D01*
X151354091Y-91217483D01*
X151360500Y-91157873D01*
X151360499Y-89562128D01*
X151354091Y-89502517D01*
X151348449Y-89487391D01*
X151303797Y-89367671D01*
X151303793Y-89367664D01*
X151217547Y-89252455D01*
X151217544Y-89252452D01*
X151102335Y-89166206D01*
X151102328Y-89166202D01*
X150967482Y-89115908D01*
X150967483Y-89115908D01*
X150907883Y-89109501D01*
X150907881Y-89109500D01*
X150907873Y-89109500D01*
X150907864Y-89109500D01*
X148812129Y-89109500D01*
X148812123Y-89109501D01*
X148752518Y-89115908D01*
X148714111Y-89130233D01*
X148644419Y-89135216D01*
X148583099Y-89101731D01*
X148232770Y-88751402D01*
X148202521Y-88702041D01*
X148147179Y-88531716D01*
X148052533Y-88367784D01*
X147925871Y-88227112D01*
X147925870Y-88227111D01*
X147772734Y-88115851D01*
X147772729Y-88115848D01*
X147599807Y-88038857D01*
X147599802Y-88038855D01*
X147454000Y-88007865D01*
X147414646Y-87999500D01*
X147225354Y-87999500D01*
X147192897Y-88006398D01*
X147040197Y-88038855D01*
X147040192Y-88038857D01*
X146867270Y-88115848D01*
X146867265Y-88115851D01*
X146714129Y-88227111D01*
X146587466Y-88367785D01*
X146492821Y-88531715D01*
X146492818Y-88531722D01*
X146437479Y-88702039D01*
X146434326Y-88711744D01*
X146414540Y-88900000D01*
X146434326Y-89088256D01*
X146434327Y-89088259D01*
X146492818Y-89268277D01*
X146492821Y-89268284D01*
X146587467Y-89432216D01*
X146700141Y-89557353D01*
X146714129Y-89572888D01*
X146867265Y-89684148D01*
X146867270Y-89684151D01*
X147040191Y-89761142D01*
X147040193Y-89761142D01*
X147040197Y-89761144D01*
X147105329Y-89774987D01*
X147166809Y-89808178D01*
X147167228Y-89808596D01*
X147735409Y-90376777D01*
X147768894Y-90438100D01*
X147763910Y-90507792D01*
X147722038Y-90563725D01*
X147656574Y-90588142D01*
X147606478Y-90579352D01*
X147605987Y-90580865D01*
X147599802Y-90578855D01*
X147454000Y-90547865D01*
X147414646Y-90539500D01*
X147225354Y-90539500D01*
X147192897Y-90546398D01*
X147040197Y-90578855D01*
X147040192Y-90578857D01*
X146867270Y-90655848D01*
X146867265Y-90655851D01*
X146714129Y-90767111D01*
X146587466Y-90907785D01*
X146492821Y-91071715D01*
X146492818Y-91071722D01*
X146435427Y-91248354D01*
X146434326Y-91251744D01*
X146414540Y-91440000D01*
X146434326Y-91628256D01*
X146434327Y-91628259D01*
X146492818Y-91808277D01*
X146492820Y-91808281D01*
X146492821Y-91808284D01*
X146502643Y-91825296D01*
X146552887Y-91912322D01*
X146569499Y-91974321D01*
X146569500Y-92728331D01*
X146549816Y-92795370D01*
X146512541Y-92832646D01*
X146488870Y-92847858D01*
X146488866Y-92847862D01*
X146394625Y-92956622D01*
X146394622Y-92956628D01*
X146334834Y-93087543D01*
X146314353Y-93230000D01*
X146314353Y-94730000D01*
X145528436Y-94730000D01*
X145499507Y-94677021D01*
X145504491Y-94607329D01*
X145532992Y-94562981D01*
X145646923Y-94449050D01*
X145737423Y-94302328D01*
X145737428Y-94302317D01*
X145791655Y-94138669D01*
X145801974Y-94037671D01*
X145801975Y-94037658D01*
X145801975Y-93988517D01*
X144700975Y-93988517D01*
X144633936Y-93968832D01*
X144588181Y-93916028D01*
X144576975Y-93864517D01*
X144576975Y-92963204D01*
X144556321Y-92925380D01*
X144553487Y-92899022D01*
X144553487Y-92196372D01*
X145053487Y-92196372D01*
X145053487Y-92721683D01*
X145074141Y-92759505D01*
X145076975Y-92785866D01*
X145076975Y-93488517D01*
X145801974Y-93488517D01*
X145801974Y-93439377D01*
X145801973Y-93439362D01*
X145791655Y-93338364D01*
X145737428Y-93174716D01*
X145737423Y-93174705D01*
X145646922Y-93027982D01*
X145646919Y-93027978D01*
X145537322Y-92918381D01*
X145503837Y-92857058D01*
X145508821Y-92787366D01*
X145537322Y-92743018D01*
X145623435Y-92656905D01*
X145713935Y-92510183D01*
X145713940Y-92510172D01*
X145768167Y-92346524D01*
X145778486Y-92245526D01*
X145778487Y-92245513D01*
X145778487Y-92196372D01*
X145053487Y-92196372D01*
X144553487Y-92196372D01*
X144553487Y-91820372D01*
X144573172Y-91753333D01*
X144625976Y-91707578D01*
X144677487Y-91696372D01*
X145778486Y-91696372D01*
X145778486Y-91647232D01*
X145778485Y-91647217D01*
X145768167Y-91546219D01*
X145713940Y-91382571D01*
X145713935Y-91382560D01*
X145623434Y-91235837D01*
X145623431Y-91235833D01*
X145509504Y-91121906D01*
X145476019Y-91060583D01*
X145481003Y-90990891D01*
X145509500Y-90946548D01*
X145623827Y-90832222D01*
X145714395Y-90685388D01*
X145768661Y-90521625D01*
X145778987Y-90420549D01*
X145778986Y-89822196D01*
X145768661Y-89721119D01*
X145714395Y-89557356D01*
X145623827Y-89410522D01*
X145501837Y-89288532D01*
X145355003Y-89197964D01*
X145191240Y-89143698D01*
X145191238Y-89143697D01*
X145090171Y-89133372D01*
X144599286Y-89133372D01*
X144532247Y-89113687D01*
X144486492Y-89060883D01*
X144476548Y-88991725D01*
X144505573Y-88928169D01*
X144511591Y-88921705D01*
X144753781Y-88679516D01*
X144997876Y-88378084D01*
X145209125Y-88052789D01*
X145385214Y-87707194D01*
X145524214Y-87345087D01*
X145624602Y-86970433D01*
X145685278Y-86587338D01*
X145705578Y-86200000D01*
X145685278Y-85812662D01*
X145624602Y-85429567D01*
X145524214Y-85054913D01*
X145385214Y-84692806D01*
X145209125Y-84347211D01*
X145157940Y-84268393D01*
X144997877Y-84021917D01*
X144831408Y-83816345D01*
X144753781Y-83720484D01*
X144479516Y-83446219D01*
X144304776Y-83304717D01*
X144178082Y-83202122D01*
X143852793Y-82990877D01*
X143507197Y-82814787D01*
X143145094Y-82675788D01*
X143145087Y-82675786D01*
X142770433Y-82575398D01*
X142770429Y-82575397D01*
X142770428Y-82575397D01*
X142387339Y-82514722D01*
X142000001Y-82494422D01*
X141999999Y-82494422D01*
X141612660Y-82514722D01*
X141229572Y-82575397D01*
X141229570Y-82575397D01*
X140854905Y-82675788D01*
X140492802Y-82814787D01*
X140147206Y-82990877D01*
X139821917Y-83202122D01*
X139520488Y-83446215D01*
X139520480Y-83446222D01*
X139246222Y-83720480D01*
X139246215Y-83720488D01*
X139002122Y-84021917D01*
X138790877Y-84347206D01*
X138614787Y-84692802D01*
X138475788Y-85054905D01*
X138375397Y-85429570D01*
X138375397Y-85429572D01*
X138372473Y-85448035D01*
X138342544Y-85511170D01*
X138283232Y-85548101D01*
X138213370Y-85547103D01*
X138155137Y-85508493D01*
X138127527Y-85448035D01*
X138124602Y-85429567D01*
X138024214Y-85054913D01*
X137885214Y-84692806D01*
X137709125Y-84347211D01*
X137657940Y-84268393D01*
X137497877Y-84021917D01*
X137331408Y-83816345D01*
X137253781Y-83720484D01*
X136979516Y-83446219D01*
X136804776Y-83304717D01*
X136678082Y-83202122D01*
X136352793Y-82990877D01*
X136007197Y-82814787D01*
X135645094Y-82675788D01*
X135645087Y-82675786D01*
X135270433Y-82575398D01*
X135270429Y-82575397D01*
X135270428Y-82575397D01*
X134887339Y-82514722D01*
X134500001Y-82494422D01*
X134499999Y-82494422D01*
X134112660Y-82514722D01*
X133729572Y-82575397D01*
X133729570Y-82575397D01*
X133354905Y-82675788D01*
X132992802Y-82814787D01*
X132647206Y-82990877D01*
X132321917Y-83202122D01*
X132020488Y-83446215D01*
X132020480Y-83446222D01*
X131746222Y-83720480D01*
X131746215Y-83720488D01*
X131508764Y-84013714D01*
X131451277Y-84053425D01*
X131381446Y-84055753D01*
X131321442Y-84019957D01*
X131290316Y-83957404D01*
X131289082Y-83948675D01*
X131275174Y-83816345D01*
X131216679Y-83636317D01*
X131122033Y-83472385D01*
X130995371Y-83331713D01*
X130995370Y-83331712D01*
X130842234Y-83220452D01*
X130842229Y-83220449D01*
X130669307Y-83143458D01*
X130669302Y-83143456D01*
X130523500Y-83112466D01*
X130484146Y-83104101D01*
X130414500Y-83104101D01*
X130347461Y-83084416D01*
X130301706Y-83031612D01*
X130290500Y-82980101D01*
X130290500Y-82352498D01*
X144961582Y-82352498D01*
X144981368Y-82540754D01*
X144981369Y-82540757D01*
X145039860Y-82720775D01*
X145039863Y-82720782D01*
X145134509Y-82884714D01*
X145220396Y-82980101D01*
X145261171Y-83025386D01*
X145414307Y-83136646D01*
X145414312Y-83136649D01*
X145587234Y-83213640D01*
X145587239Y-83213642D01*
X145772396Y-83252998D01*
X145772397Y-83252998D01*
X145961686Y-83252998D01*
X145961688Y-83252998D01*
X146146845Y-83213642D01*
X146319772Y-83136649D01*
X146323166Y-83134182D01*
X146388972Y-83110702D01*
X146396053Y-83110500D01*
X148243023Y-83110500D01*
X148310062Y-83130185D01*
X148355817Y-83182989D01*
X148363266Y-83210134D01*
X148364124Y-83209932D01*
X148365907Y-83217479D01*
X148416202Y-83352328D01*
X148416206Y-83352335D01*
X148502452Y-83467544D01*
X148502455Y-83467547D01*
X148617664Y-83553793D01*
X148617671Y-83553797D01*
X148752517Y-83604091D01*
X148752516Y-83604091D01*
X148757679Y-83604646D01*
X148812127Y-83610500D01*
X150907872Y-83610499D01*
X150967483Y-83604091D01*
X151102331Y-83553796D01*
X151217546Y-83467546D01*
X151303796Y-83352331D01*
X151354091Y-83217483D01*
X151360500Y-83157873D01*
X151360499Y-81562128D01*
X151354091Y-81502517D01*
X151353219Y-81500180D01*
X151303797Y-81367671D01*
X151303793Y-81367664D01*
X151217547Y-81252455D01*
X151217544Y-81252452D01*
X151102335Y-81166206D01*
X151102328Y-81166202D01*
X150967482Y-81115908D01*
X150967483Y-81115908D01*
X150907883Y-81109501D01*
X150907881Y-81109500D01*
X150907873Y-81109500D01*
X150907864Y-81109500D01*
X148812129Y-81109500D01*
X148812123Y-81109501D01*
X148752516Y-81115908D01*
X148617671Y-81166202D01*
X148617664Y-81166206D01*
X148502455Y-81252452D01*
X148502452Y-81252455D01*
X148416206Y-81367664D01*
X148416202Y-81367671D01*
X148365908Y-81502517D01*
X148364126Y-81510062D01*
X148361853Y-81509525D01*
X148339571Y-81563312D01*
X148282177Y-81603157D01*
X148243024Y-81609500D01*
X146416705Y-81609500D01*
X146349666Y-81589815D01*
X146343820Y-81585819D01*
X146319769Y-81568345D01*
X146146849Y-81491355D01*
X146146844Y-81491353D01*
X146001042Y-81460363D01*
X145961688Y-81451998D01*
X145772396Y-81451998D01*
X145739939Y-81458896D01*
X145587239Y-81491353D01*
X145587234Y-81491355D01*
X145414312Y-81568346D01*
X145414307Y-81568349D01*
X145261171Y-81679609D01*
X145134508Y-81820283D01*
X145039863Y-81984213D01*
X145039860Y-81984220D01*
X144981369Y-82164238D01*
X144981368Y-82164242D01*
X144961582Y-82352498D01*
X130290500Y-82352498D01*
X130290500Y-81759921D01*
X130310185Y-81692882D01*
X130326818Y-81672241D01*
X130334057Y-81665002D01*
X130365173Y-81633885D01*
X130426493Y-81600401D01*
X130496185Y-81605385D01*
X130540534Y-81633886D01*
X130654461Y-81747813D01*
X130654465Y-81747816D01*
X130801188Y-81838317D01*
X130801199Y-81838322D01*
X130964847Y-81892549D01*
X131065851Y-81902868D01*
X131114999Y-81902867D01*
X131115000Y-79952869D01*
X131114999Y-79952868D01*
X131065861Y-79952869D01*
X131065843Y-79952870D01*
X130964847Y-79963188D01*
X130801199Y-80017415D01*
X130801188Y-80017420D01*
X130654465Y-80107921D01*
X130540534Y-80221852D01*
X130479211Y-80255336D01*
X130409519Y-80250352D01*
X130365172Y-80221851D01*
X130326819Y-80183498D01*
X130293334Y-80122175D01*
X130290500Y-80095817D01*
X130290500Y-78803705D01*
X130291809Y-78785735D01*
X130295289Y-78761974D01*
X130291930Y-78723586D01*
X130290735Y-78709933D01*
X130290500Y-78704532D01*
X130290500Y-78696297D01*
X130290500Y-78696296D01*
X130290500Y-78696291D01*
X130286691Y-78663707D01*
X130279998Y-78587202D01*
X130279996Y-78587197D01*
X130278538Y-78580133D01*
X130278597Y-78580120D01*
X130276967Y-78572764D01*
X130276908Y-78572779D01*
X130275242Y-78565753D01*
X130275241Y-78565745D01*
X130248973Y-78493573D01*
X130248972Y-78493573D01*
X130224815Y-78420666D01*
X130221763Y-78414121D01*
X130221817Y-78414095D01*
X130218533Y-78407312D01*
X130218480Y-78407340D01*
X130215237Y-78400884D01*
X130215237Y-78400883D01*
X130173029Y-78336709D01*
X130141999Y-78286402D01*
X130123560Y-78219012D01*
X130143542Y-78153775D01*
X130209125Y-78052789D01*
X130385214Y-77707194D01*
X130524214Y-77345087D01*
X130624602Y-76970433D01*
X130627527Y-76951964D01*
X130657456Y-76888830D01*
X130716767Y-76851898D01*
X130786629Y-76852896D01*
X130844862Y-76891505D01*
X130872473Y-76951965D01*
X130875396Y-76970424D01*
X130875397Y-76970429D01*
X130975788Y-77345094D01*
X131114787Y-77707197D01*
X131290877Y-78052793D01*
X131502122Y-78378082D01*
X131671467Y-78587205D01*
X131746219Y-78679516D01*
X132020484Y-78953781D01*
X132101709Y-79019556D01*
X132321917Y-79197877D01*
X132468377Y-79292989D01*
X132647211Y-79409125D01*
X132992806Y-79585214D01*
X133354913Y-79724214D01*
X133729567Y-79824602D01*
X134112662Y-79885278D01*
X134478576Y-79904455D01*
X134499999Y-79905578D01*
X134500000Y-79905578D01*
X134500001Y-79905578D01*
X134520300Y-79904514D01*
X134887338Y-79885278D01*
X135270433Y-79824602D01*
X135645087Y-79724214D01*
X136007194Y-79585214D01*
X136352789Y-79409125D01*
X136410288Y-79371783D01*
X136477230Y-79351781D01*
X136544362Y-79371146D01*
X136590368Y-79423731D01*
X136601821Y-79475780D01*
X136601821Y-80092468D01*
X136582136Y-80159507D01*
X136529332Y-80205262D01*
X136477821Y-80216468D01*
X133948160Y-80216468D01*
X133881121Y-80196783D01*
X133875282Y-80192792D01*
X133862927Y-80183815D01*
X133862926Y-80183814D01*
X133690004Y-80106823D01*
X133689999Y-80106821D01*
X133544198Y-80075831D01*
X133504843Y-80067466D01*
X133315551Y-80067466D01*
X133283094Y-80074364D01*
X133130394Y-80106821D01*
X133130389Y-80106823D01*
X132957467Y-80183814D01*
X132957462Y-80183817D01*
X132804326Y-80295077D01*
X132677663Y-80435751D01*
X132583013Y-80599690D01*
X132581391Y-80603333D01*
X132579893Y-80605094D01*
X132579769Y-80605310D01*
X132579729Y-80605287D01*
X132536133Y-80656564D01*
X132469281Y-80676876D01*
X132402060Y-80657820D01*
X132355812Y-80605447D01*
X132344761Y-80565479D01*
X132342181Y-80540217D01*
X132287953Y-80376568D01*
X132287948Y-80376557D01*
X132197447Y-80229834D01*
X132197444Y-80229830D01*
X132075538Y-80107924D01*
X132075534Y-80107921D01*
X131928811Y-80017420D01*
X131928800Y-80017415D01*
X131765152Y-79963188D01*
X131664154Y-79952869D01*
X131615000Y-79952869D01*
X131615000Y-81902868D01*
X131664140Y-81902868D01*
X131664154Y-81902867D01*
X131765152Y-81892549D01*
X131928800Y-81838322D01*
X131928811Y-81838317D01*
X132075534Y-81747816D01*
X132075538Y-81747813D01*
X132197444Y-81625907D01*
X132197447Y-81625903D01*
X132287948Y-81479180D01*
X132287953Y-81479169D01*
X132341518Y-81317521D01*
X132381290Y-81260076D01*
X132445806Y-81233253D01*
X132514582Y-81245568D01*
X132565782Y-81293111D01*
X132577155Y-81318206D01*
X132583016Y-81336246D01*
X132583018Y-81336250D01*
X132677664Y-81500182D01*
X132798052Y-81633886D01*
X132804326Y-81640854D01*
X132957462Y-81752114D01*
X132957467Y-81752117D01*
X133130389Y-81829108D01*
X133130394Y-81829110D01*
X133315551Y-81868466D01*
X133315552Y-81868466D01*
X133504841Y-81868466D01*
X133504843Y-81868466D01*
X133690000Y-81829110D01*
X133862927Y-81752117D01*
X133868851Y-81747813D01*
X133878024Y-81741149D01*
X133943830Y-81717670D01*
X133950908Y-81717468D01*
X136520269Y-81717468D01*
X136587308Y-81737153D01*
X136607950Y-81753787D01*
X136641471Y-81787308D01*
X136788305Y-81877876D01*
X136952068Y-81932142D01*
X137053144Y-81942468D01*
X137651497Y-81942467D01*
X137651505Y-81942466D01*
X137651508Y-81942466D01*
X137706851Y-81936812D01*
X137752574Y-81932142D01*
X137916337Y-81877876D01*
X138063171Y-81787308D01*
X138177496Y-81672982D01*
X138238815Y-81639500D01*
X138308507Y-81644484D01*
X138352855Y-81672985D01*
X138466782Y-81786912D01*
X138466786Y-81786915D01*
X138613509Y-81877416D01*
X138613520Y-81877421D01*
X138777168Y-81931648D01*
X138878172Y-81941967D01*
X138927320Y-81941966D01*
X138927321Y-81941966D01*
X138927321Y-81216968D01*
X139427321Y-81216968D01*
X139427321Y-81941967D01*
X139476461Y-81941967D01*
X139476475Y-81941966D01*
X139577473Y-81931648D01*
X139741121Y-81877421D01*
X139741132Y-81877416D01*
X139887855Y-81786915D01*
X139887859Y-81786912D01*
X140009765Y-81665006D01*
X140009768Y-81665002D01*
X140100269Y-81518279D01*
X140100274Y-81518268D01*
X140154501Y-81354620D01*
X140164820Y-81253622D01*
X140164821Y-81253609D01*
X140164821Y-81216968D01*
X139427321Y-81216968D01*
X138927321Y-81216968D01*
X138927321Y-79991968D01*
X139427321Y-79991968D01*
X139427321Y-80716968D01*
X140164820Y-80716968D01*
X140164820Y-80680328D01*
X140164819Y-80680313D01*
X140154501Y-80579315D01*
X140100274Y-80415667D01*
X140100269Y-80415656D01*
X140009768Y-80268933D01*
X140009765Y-80268929D01*
X139887859Y-80147023D01*
X139887855Y-80147020D01*
X139741132Y-80056519D01*
X139741121Y-80056514D01*
X139577473Y-80002287D01*
X139476475Y-79991968D01*
X139427321Y-79991968D01*
X138927321Y-79991968D01*
X138927320Y-79991967D01*
X138878182Y-79991968D01*
X138878164Y-79991969D01*
X138777168Y-80002287D01*
X138613520Y-80056514D01*
X138613509Y-80056519D01*
X138466786Y-80147020D01*
X138352855Y-80260951D01*
X138291532Y-80294435D01*
X138221840Y-80289451D01*
X138177493Y-80260950D01*
X138139140Y-80222597D01*
X138105655Y-80161274D01*
X138102821Y-80134916D01*
X138102821Y-79116026D01*
X138104130Y-79098056D01*
X138104450Y-79095868D01*
X138107610Y-79074298D01*
X138103056Y-79022252D01*
X138102821Y-79016849D01*
X138102821Y-79008618D01*
X138102821Y-79008612D01*
X138099014Y-78976045D01*
X138092320Y-78899524D01*
X138092320Y-78899522D01*
X138090860Y-78892450D01*
X138090918Y-78892437D01*
X138089286Y-78885078D01*
X138089227Y-78885093D01*
X138087562Y-78878072D01*
X138087562Y-78878066D01*
X138061295Y-78805897D01*
X138037135Y-78732987D01*
X138037134Y-78732986D01*
X138037134Y-78732984D01*
X138034085Y-78726445D01*
X138034138Y-78726420D01*
X138030852Y-78719632D01*
X138030800Y-78719659D01*
X138027557Y-78713203D01*
X138025410Y-78709939D01*
X137985355Y-78649037D01*
X137945033Y-78583665D01*
X137945031Y-78583663D01*
X137940555Y-78578002D01*
X137940601Y-78577964D01*
X137935840Y-78572120D01*
X137935795Y-78572159D01*
X137931155Y-78566629D01*
X137875303Y-78513934D01*
X137663992Y-78302624D01*
X137630507Y-78241301D01*
X137635491Y-78171610D01*
X137647675Y-78147412D01*
X137709125Y-78052789D01*
X137885214Y-77707194D01*
X138024214Y-77345087D01*
X138124602Y-76970433D01*
X138127527Y-76951964D01*
X138157456Y-76888830D01*
X138216767Y-76851898D01*
X138286629Y-76852896D01*
X138344862Y-76891505D01*
X138372473Y-76951965D01*
X138375396Y-76970424D01*
X138375397Y-76970429D01*
X138475788Y-77345094D01*
X138614787Y-77707197D01*
X138790877Y-78052793D01*
X139002122Y-78378082D01*
X139171467Y-78587205D01*
X139246219Y-78679516D01*
X139520484Y-78953781D01*
X139601709Y-79019556D01*
X139821917Y-79197877D01*
X139968377Y-79292989D01*
X140147211Y-79409125D01*
X140492806Y-79585214D01*
X140854913Y-79724214D01*
X141229567Y-79824602D01*
X141612662Y-79885278D01*
X141978576Y-79904455D01*
X141999999Y-79905578D01*
X142000000Y-79905578D01*
X142000001Y-79905578D01*
X142020300Y-79904514D01*
X142387338Y-79885278D01*
X142770433Y-79824602D01*
X143145087Y-79724214D01*
X143507194Y-79585214D01*
X143852789Y-79409125D01*
X144178084Y-79197876D01*
X144479516Y-78953781D01*
X144753781Y-78679516D01*
X144997876Y-78378084D01*
X145209125Y-78052789D01*
X145385214Y-77707194D01*
X145524214Y-77345087D01*
X145624602Y-76970433D01*
X145627527Y-76951964D01*
X145657456Y-76888830D01*
X145716767Y-76851898D01*
X145786629Y-76852896D01*
X145844862Y-76891505D01*
X145872473Y-76951965D01*
X145875396Y-76970424D01*
X145875397Y-76970429D01*
X145975788Y-77345094D01*
X146114787Y-77707197D01*
X146290877Y-78052793D01*
X146502122Y-78378082D01*
X146671467Y-78587205D01*
X146746219Y-78679516D01*
X147020484Y-78953781D01*
X147101709Y-79019556D01*
X147321917Y-79197877D01*
X147468377Y-79292989D01*
X147647211Y-79409125D01*
X147992806Y-79585214D01*
X148354913Y-79724214D01*
X148729567Y-79824602D01*
X149112662Y-79885278D01*
X149478576Y-79904455D01*
X149499999Y-79905578D01*
X149500000Y-79905578D01*
X149500001Y-79905578D01*
X149520300Y-79904514D01*
X149887338Y-79885278D01*
X150270433Y-79824602D01*
X150645087Y-79724214D01*
X151007194Y-79585214D01*
X151352789Y-79409125D01*
X151678084Y-79197876D01*
X151979516Y-78953781D01*
X152253781Y-78679516D01*
X152497876Y-78378084D01*
X152709125Y-78052789D01*
X152885214Y-77707194D01*
X153024214Y-77345087D01*
X153124602Y-76970433D01*
X153185278Y-76587338D01*
X153205578Y-76200000D01*
X153185278Y-75812662D01*
X153124602Y-75429567D01*
X153024214Y-75054913D01*
X152885214Y-74692806D01*
X152709125Y-74347211D01*
X152497876Y-74021916D01*
X152253781Y-73720484D01*
X151979516Y-73446219D01*
X151678084Y-73202124D01*
X151678082Y-73202122D01*
X151352793Y-72990877D01*
X151007197Y-72814787D01*
X150645094Y-72675788D01*
X150645087Y-72675786D01*
X150270433Y-72575398D01*
X150270429Y-72575397D01*
X150270428Y-72575397D01*
X149887339Y-72514722D01*
X149500001Y-72494422D01*
X149499999Y-72494422D01*
X149112660Y-72514722D01*
X148729572Y-72575397D01*
X148729570Y-72575397D01*
X148354905Y-72675788D01*
X147992802Y-72814787D01*
X147647206Y-72990877D01*
X147321917Y-73202122D01*
X147020488Y-73446215D01*
X147020480Y-73446222D01*
X146746222Y-73720480D01*
X146746215Y-73720488D01*
X146502122Y-74021917D01*
X146290877Y-74347206D01*
X146114787Y-74692802D01*
X145975788Y-75054905D01*
X145875397Y-75429570D01*
X145875397Y-75429572D01*
X145872473Y-75448035D01*
X145842544Y-75511170D01*
X145783232Y-75548101D01*
X145713370Y-75547103D01*
X145655137Y-75508493D01*
X145627527Y-75448035D01*
X145624602Y-75429567D01*
X145524214Y-75054913D01*
X145385214Y-74692806D01*
X145209125Y-74347211D01*
X144997876Y-74021916D01*
X144753781Y-73720484D01*
X144479516Y-73446219D01*
X144178084Y-73202124D01*
X144178082Y-73202122D01*
X143852793Y-72990877D01*
X143507197Y-72814787D01*
X143145094Y-72675788D01*
X143145087Y-72675786D01*
X142770433Y-72575398D01*
X142770429Y-72575397D01*
X142770428Y-72575397D01*
X142387339Y-72514722D01*
X142000001Y-72494422D01*
X141999999Y-72494422D01*
X141612660Y-72514722D01*
X141229572Y-72575397D01*
X141229570Y-72575397D01*
X140854905Y-72675788D01*
X140492802Y-72814787D01*
X140147206Y-72990877D01*
X139821917Y-73202122D01*
X139520488Y-73446215D01*
X139520480Y-73446222D01*
X139246222Y-73720480D01*
X139246215Y-73720488D01*
X139002122Y-74021917D01*
X138790877Y-74347206D01*
X138614787Y-74692802D01*
X138475788Y-75054905D01*
X138375397Y-75429570D01*
X138375397Y-75429572D01*
X138372473Y-75448035D01*
X138342544Y-75511170D01*
X138283232Y-75548101D01*
X138213370Y-75547103D01*
X138155137Y-75508493D01*
X138127527Y-75448035D01*
X138124602Y-75429567D01*
X138024214Y-75054913D01*
X137885214Y-74692806D01*
X137709125Y-74347211D01*
X137497876Y-74021916D01*
X137253781Y-73720484D01*
X136979516Y-73446219D01*
X136678084Y-73202124D01*
X136678082Y-73202122D01*
X136352793Y-72990877D01*
X136007197Y-72814787D01*
X135645094Y-72675788D01*
X135645087Y-72675786D01*
X135270433Y-72575398D01*
X135270429Y-72575397D01*
X135270428Y-72575397D01*
X134887339Y-72514722D01*
X134500001Y-72494422D01*
X134499999Y-72494422D01*
X134112660Y-72514722D01*
X133729572Y-72575397D01*
X133729570Y-72575397D01*
X133354905Y-72675788D01*
X132992802Y-72814787D01*
X132647206Y-72990877D01*
X132321917Y-73202122D01*
X132020488Y-73446215D01*
X132020480Y-73446222D01*
X131746222Y-73720480D01*
X131746215Y-73720488D01*
X131502122Y-74021917D01*
X131290877Y-74347206D01*
X131114787Y-74692802D01*
X130975788Y-75054905D01*
X130875397Y-75429570D01*
X130875397Y-75429572D01*
X130872473Y-75448035D01*
X130842544Y-75511170D01*
X130783232Y-75548101D01*
X130713370Y-75547103D01*
X130655137Y-75508493D01*
X130627527Y-75448035D01*
X130624602Y-75429567D01*
X130524214Y-75054913D01*
X130385214Y-74692806D01*
X130209125Y-74347211D01*
X129997876Y-74021916D01*
X129753781Y-73720484D01*
X129479516Y-73446219D01*
X129178084Y-73202124D01*
X129178082Y-73202122D01*
X128852793Y-72990877D01*
X128507197Y-72814787D01*
X128145094Y-72675788D01*
X128145087Y-72675786D01*
X127770433Y-72575398D01*
X127770429Y-72575397D01*
X127770428Y-72575397D01*
X127387339Y-72514722D01*
X127000001Y-72494422D01*
X126999999Y-72494422D01*
X126612660Y-72514722D01*
X126229572Y-72575397D01*
X126229570Y-72575397D01*
X125854905Y-72675788D01*
X125492802Y-72814787D01*
X125147206Y-72990877D01*
X124821917Y-73202122D01*
X124520488Y-73446215D01*
X124520480Y-73446222D01*
X124246222Y-73720480D01*
X124246215Y-73720488D01*
X124002122Y-74021917D01*
X123790877Y-74347206D01*
X123614787Y-74692802D01*
X123475788Y-75054905D01*
X123375397Y-75429570D01*
X123375397Y-75429572D01*
X123314722Y-75812660D01*
X123294422Y-76199999D01*
X123294422Y-76200000D01*
X123314722Y-76587339D01*
X123375397Y-76970427D01*
X123375397Y-76970429D01*
X123475788Y-77345094D01*
X123614787Y-77707197D01*
X123790877Y-78052793D01*
X124002122Y-78378082D01*
X124171467Y-78587205D01*
X124246219Y-78679516D01*
X124520484Y-78953781D01*
X124601709Y-79019556D01*
X124821917Y-79197877D01*
X124968377Y-79292989D01*
X125147211Y-79409125D01*
X125492806Y-79585214D01*
X125854913Y-79724214D01*
X126229567Y-79824602D01*
X126612662Y-79885278D01*
X126978576Y-79904455D01*
X126999999Y-79905578D01*
X127000000Y-79905578D01*
X127000001Y-79905578D01*
X127020301Y-79904514D01*
X127387338Y-79885278D01*
X127770433Y-79824602D01*
X128145087Y-79724214D01*
X128507194Y-79585214D01*
X128507200Y-79585210D01*
X128507205Y-79585209D01*
X128609205Y-79533237D01*
X128677874Y-79520340D01*
X128742614Y-79546616D01*
X128782872Y-79603722D01*
X128789500Y-79643721D01*
X128789500Y-80095816D01*
X128769815Y-80162855D01*
X128753182Y-80183496D01*
X128707161Y-80229517D01*
X128616593Y-80376350D01*
X128616591Y-80376355D01*
X128596910Y-80435750D01*
X128562326Y-80540116D01*
X128562326Y-80540117D01*
X128562325Y-80540117D01*
X128552000Y-80641184D01*
X128552000Y-81214538D01*
X128552001Y-81214556D01*
X128562325Y-81315621D01*
X128579573Y-81367671D01*
X128616520Y-81479169D01*
X128616592Y-81479384D01*
X128616593Y-81479387D01*
X128635514Y-81510062D01*
X128694309Y-81605385D01*
X128707161Y-81626220D01*
X128753181Y-81672240D01*
X128786666Y-81733563D01*
X128789500Y-81759921D01*
X128789500Y-85098270D01*
X128769815Y-85165309D01*
X128717011Y-85211064D01*
X128647853Y-85221008D01*
X128584297Y-85191983D01*
X128577819Y-85185951D01*
X127996229Y-84604361D01*
X127984449Y-84590730D01*
X127976982Y-84580701D01*
X127970112Y-84571472D01*
X127964803Y-84567017D01*
X127930087Y-84537886D01*
X127926112Y-84534244D01*
X127923190Y-84531322D01*
X127920280Y-84528411D01*
X127894540Y-84508059D01*
X127835709Y-84458694D01*
X127829680Y-84454729D01*
X127829712Y-84454680D01*
X127823353Y-84450628D01*
X127823322Y-84450679D01*
X127817180Y-84446891D01*
X127817178Y-84446890D01*
X127817177Y-84446889D01*
X127777974Y-84428608D01*
X127747558Y-84414424D01*
X127687041Y-84384032D01*
X127635966Y-84336355D01*
X127618775Y-84268633D01*
X127635302Y-84211224D01*
X127689467Y-84117407D01*
X127739469Y-83950388D01*
X127749607Y-83776340D01*
X127719332Y-83604646D01*
X127650279Y-83444562D01*
X127546168Y-83304717D01*
X127412614Y-83192651D01*
X127343385Y-83157883D01*
X127256818Y-83114407D01*
X127256816Y-83114406D01*
X127256815Y-83114406D01*
X127087171Y-83074200D01*
X126956564Y-83074200D01*
X126843051Y-83087467D01*
X126826835Y-83089363D01*
X126826832Y-83089364D01*
X126663008Y-83148991D01*
X126663004Y-83148993D01*
X126517348Y-83244792D01*
X126517347Y-83244793D01*
X126397706Y-83371603D01*
X126397703Y-83371609D01*
X126310534Y-83522590D01*
X126260531Y-83689610D01*
X126260530Y-83689616D01*
X126250393Y-83863659D01*
X126280667Y-84035349D01*
X126280669Y-84035356D01*
X126314068Y-84112785D01*
X126322546Y-84182138D01*
X126292183Y-84245066D01*
X126250645Y-84275177D01*
X126169437Y-84311333D01*
X126169432Y-84311336D01*
X126056885Y-84393107D01*
X125991079Y-84416587D01*
X125923025Y-84400761D01*
X125911115Y-84393107D01*
X125798567Y-84311336D01*
X125798562Y-84311333D01*
X125721992Y-84277242D01*
X125668755Y-84231992D01*
X125648434Y-84165143D01*
X125656590Y-84124682D01*
X125655395Y-84124325D01*
X125657466Y-84117408D01*
X125657467Y-84117407D01*
X125707469Y-83950388D01*
X125717607Y-83776340D01*
X125687332Y-83604646D01*
X125618279Y-83444562D01*
X125514168Y-83304717D01*
X125380614Y-83192651D01*
X125311385Y-83157883D01*
X125224818Y-83114407D01*
X125224816Y-83114406D01*
X125224815Y-83114406D01*
X125055171Y-83074200D01*
X124924564Y-83074200D01*
X124811051Y-83087467D01*
X124794835Y-83089363D01*
X124794832Y-83089364D01*
X124631008Y-83148991D01*
X124631004Y-83148993D01*
X124485348Y-83244792D01*
X124485347Y-83244793D01*
X124365706Y-83371603D01*
X124365703Y-83371609D01*
X124278534Y-83522590D01*
X124228531Y-83689610D01*
X124228530Y-83689616D01*
X124220327Y-83830461D01*
X124218393Y-83863660D01*
X124248668Y-84035354D01*
X124317721Y-84195438D01*
X124317723Y-84195440D01*
X124317727Y-84195448D01*
X124394605Y-84298713D01*
X124418849Y-84364241D01*
X124403817Y-84432475D01*
X124360242Y-84478296D01*
X124329460Y-84497283D01*
X124323787Y-84501769D01*
X124323751Y-84501723D01*
X124317908Y-84506484D01*
X124317945Y-84506528D01*
X124312420Y-84511164D01*
X124259724Y-84567017D01*
X123969042Y-84857698D01*
X123907719Y-84891183D01*
X123907143Y-84891307D01*
X123842010Y-84905152D01*
X123842006Y-84905153D01*
X123669084Y-84982144D01*
X123669079Y-84982147D01*
X123515943Y-85093407D01*
X123389280Y-85234081D01*
X123294635Y-85398011D01*
X123294632Y-85398018D01*
X123236141Y-85578036D01*
X123236140Y-85578040D01*
X123216354Y-85766296D01*
X122569661Y-85766296D01*
X122234319Y-83830461D01*
X122232499Y-83809296D01*
X122232500Y-71244500D01*
X122252185Y-71177461D01*
X122304989Y-71131706D01*
X122356500Y-71120500D01*
X154107500Y-71120500D01*
X154174539Y-71140185D01*
G37*
%TD.AperFunction*%
%TD*%
M02*
