%TF.GenerationSoftware,KiCad,Pcbnew,7.0.6*%
%TF.CreationDate,2023-10-04T19:29:37-04:00*%
%TF.ProjectId,Encoder_Pulse_Generic_ATTINY85,456e636f-6465-4725-9f50-756c73655f47,rev?*%
%TF.SameCoordinates,Original*%
%TF.FileFunction,Legend,Bot*%
%TF.FilePolarity,Positive*%
%FSLAX46Y46*%
G04 Gerber Fmt 4.6, Leading zero omitted, Abs format (unit mm)*
G04 Created by KiCad (PCBNEW 7.0.6) date 2023-10-04 19:29:37*
%MOMM*%
%LPD*%
G01*
G04 APERTURE LIST*
%ADD10C,0.150000*%
%ADD11C,0.200000*%
G04 APERTURE END LIST*
D10*
X133909451Y-105966096D02*
X133909451Y-106728001D01*
X134290404Y-106347048D02*
X133528499Y-106347048D01*
X133290404Y-107680381D02*
X133290404Y-107204191D01*
X133290404Y-107204191D02*
X133766594Y-107156572D01*
X133766594Y-107156572D02*
X133718975Y-107204191D01*
X133718975Y-107204191D02*
X133671356Y-107299429D01*
X133671356Y-107299429D02*
X133671356Y-107537524D01*
X133671356Y-107537524D02*
X133718975Y-107632762D01*
X133718975Y-107632762D02*
X133766594Y-107680381D01*
X133766594Y-107680381D02*
X133861832Y-107728000D01*
X133861832Y-107728000D02*
X134099927Y-107728000D01*
X134099927Y-107728000D02*
X134195165Y-107680381D01*
X134195165Y-107680381D02*
X134242785Y-107632762D01*
X134242785Y-107632762D02*
X134290404Y-107537524D01*
X134290404Y-107537524D02*
X134290404Y-107299429D01*
X134290404Y-107299429D02*
X134242785Y-107204191D01*
X134242785Y-107204191D02*
X134195165Y-107156572D01*
X133290404Y-108013715D02*
X134290404Y-108347048D01*
X134290404Y-108347048D02*
X133290404Y-108680381D01*
D11*
X136831827Y-106646842D02*
X136784208Y-106551604D01*
X136784208Y-106551604D02*
X136784208Y-106408747D01*
X136784208Y-106408747D02*
X136831827Y-106265890D01*
X136831827Y-106265890D02*
X136927065Y-106170652D01*
X136927065Y-106170652D02*
X137022303Y-106123033D01*
X137022303Y-106123033D02*
X137212779Y-106075414D01*
X137212779Y-106075414D02*
X137355636Y-106075414D01*
X137355636Y-106075414D02*
X137546112Y-106123033D01*
X137546112Y-106123033D02*
X137641350Y-106170652D01*
X137641350Y-106170652D02*
X137736589Y-106265890D01*
X137736589Y-106265890D02*
X137784208Y-106408747D01*
X137784208Y-106408747D02*
X137784208Y-106503985D01*
X137784208Y-106503985D02*
X137736589Y-106646842D01*
X137736589Y-106646842D02*
X137688969Y-106694461D01*
X137688969Y-106694461D02*
X137355636Y-106694461D01*
X137355636Y-106694461D02*
X137355636Y-106503985D01*
X137784208Y-107123033D02*
X136784208Y-107123033D01*
X136784208Y-107123033D02*
X137784208Y-107694461D01*
X137784208Y-107694461D02*
X136784208Y-107694461D01*
X137784208Y-108170652D02*
X136784208Y-108170652D01*
X136784208Y-108170652D02*
X136784208Y-108408747D01*
X136784208Y-108408747D02*
X136831827Y-108551604D01*
X136831827Y-108551604D02*
X136927065Y-108646842D01*
X136927065Y-108646842D02*
X137022303Y-108694461D01*
X137022303Y-108694461D02*
X137212779Y-108742080D01*
X137212779Y-108742080D02*
X137355636Y-108742080D01*
X137355636Y-108742080D02*
X137546112Y-108694461D01*
X137546112Y-108694461D02*
X137641350Y-108646842D01*
X137641350Y-108646842D02*
X137736589Y-108551604D01*
X137736589Y-108551604D02*
X137784208Y-108408747D01*
X137784208Y-108408747D02*
X137784208Y-108170652D01*
X141283270Y-106263317D02*
X141330889Y-106406174D01*
X141330889Y-106406174D02*
X141330889Y-106644269D01*
X141330889Y-106644269D02*
X141283270Y-106739507D01*
X141283270Y-106739507D02*
X141235650Y-106787126D01*
X141235650Y-106787126D02*
X141140412Y-106834745D01*
X141140412Y-106834745D02*
X141045174Y-106834745D01*
X141045174Y-106834745D02*
X140949936Y-106787126D01*
X140949936Y-106787126D02*
X140902317Y-106739507D01*
X140902317Y-106739507D02*
X140854698Y-106644269D01*
X140854698Y-106644269D02*
X140807079Y-106453793D01*
X140807079Y-106453793D02*
X140759460Y-106358555D01*
X140759460Y-106358555D02*
X140711841Y-106310936D01*
X140711841Y-106310936D02*
X140616603Y-106263317D01*
X140616603Y-106263317D02*
X140521365Y-106263317D01*
X140521365Y-106263317D02*
X140426127Y-106310936D01*
X140426127Y-106310936D02*
X140378508Y-106358555D01*
X140378508Y-106358555D02*
X140330889Y-106453793D01*
X140330889Y-106453793D02*
X140330889Y-106691888D01*
X140330889Y-106691888D02*
X140378508Y-106834745D01*
X141235650Y-107834745D02*
X141283270Y-107787126D01*
X141283270Y-107787126D02*
X141330889Y-107644269D01*
X141330889Y-107644269D02*
X141330889Y-107549031D01*
X141330889Y-107549031D02*
X141283270Y-107406174D01*
X141283270Y-107406174D02*
X141188031Y-107310936D01*
X141188031Y-107310936D02*
X141092793Y-107263317D01*
X141092793Y-107263317D02*
X140902317Y-107215698D01*
X140902317Y-107215698D02*
X140759460Y-107215698D01*
X140759460Y-107215698D02*
X140568984Y-107263317D01*
X140568984Y-107263317D02*
X140473746Y-107310936D01*
X140473746Y-107310936D02*
X140378508Y-107406174D01*
X140378508Y-107406174D02*
X140330889Y-107549031D01*
X140330889Y-107549031D02*
X140330889Y-107644269D01*
X140330889Y-107644269D02*
X140378508Y-107787126D01*
X140378508Y-107787126D02*
X140426127Y-107834745D01*
X141330889Y-108739507D02*
X141330889Y-108263317D01*
X141330889Y-108263317D02*
X140330889Y-108263317D01*
X144806463Y-106216341D02*
X144854082Y-106359198D01*
X144854082Y-106359198D02*
X144854082Y-106597293D01*
X144854082Y-106597293D02*
X144806463Y-106692531D01*
X144806463Y-106692531D02*
X144758843Y-106740150D01*
X144758843Y-106740150D02*
X144663605Y-106787769D01*
X144663605Y-106787769D02*
X144568367Y-106787769D01*
X144568367Y-106787769D02*
X144473129Y-106740150D01*
X144473129Y-106740150D02*
X144425510Y-106692531D01*
X144425510Y-106692531D02*
X144377891Y-106597293D01*
X144377891Y-106597293D02*
X144330272Y-106406817D01*
X144330272Y-106406817D02*
X144282653Y-106311579D01*
X144282653Y-106311579D02*
X144235034Y-106263960D01*
X144235034Y-106263960D02*
X144139796Y-106216341D01*
X144139796Y-106216341D02*
X144044558Y-106216341D01*
X144044558Y-106216341D02*
X143949320Y-106263960D01*
X143949320Y-106263960D02*
X143901701Y-106311579D01*
X143901701Y-106311579D02*
X143854082Y-106406817D01*
X143854082Y-106406817D02*
X143854082Y-106644912D01*
X143854082Y-106644912D02*
X143901701Y-106787769D01*
X144854082Y-107216341D02*
X143854082Y-107216341D01*
X143854082Y-107216341D02*
X143854082Y-107454436D01*
X143854082Y-107454436D02*
X143901701Y-107597293D01*
X143901701Y-107597293D02*
X143996939Y-107692531D01*
X143996939Y-107692531D02*
X144092177Y-107740150D01*
X144092177Y-107740150D02*
X144282653Y-107787769D01*
X144282653Y-107787769D02*
X144425510Y-107787769D01*
X144425510Y-107787769D02*
X144615986Y-107740150D01*
X144615986Y-107740150D02*
X144711224Y-107692531D01*
X144711224Y-107692531D02*
X144806463Y-107597293D01*
X144806463Y-107597293D02*
X144854082Y-107454436D01*
X144854082Y-107454436D02*
X144854082Y-107216341D01*
X144568367Y-108168722D02*
X144568367Y-108644912D01*
X144854082Y-108073484D02*
X143854082Y-108406817D01*
X143854082Y-108406817D02*
X144854082Y-108740150D01*
X128649767Y-84073371D02*
X127749767Y-84073371D01*
X127749767Y-84073371D02*
X127749767Y-84287657D01*
X127749767Y-84287657D02*
X127792624Y-84416228D01*
X127792624Y-84416228D02*
X127878338Y-84501943D01*
X127878338Y-84501943D02*
X127964052Y-84544800D01*
X127964052Y-84544800D02*
X128135481Y-84587657D01*
X128135481Y-84587657D02*
X128264052Y-84587657D01*
X128264052Y-84587657D02*
X128435481Y-84544800D01*
X128435481Y-84544800D02*
X128521195Y-84501943D01*
X128521195Y-84501943D02*
X128606910Y-84416228D01*
X128606910Y-84416228D02*
X128649767Y-84287657D01*
X128649767Y-84287657D02*
X128649767Y-84073371D01*
X128606910Y-85316228D02*
X128649767Y-85230514D01*
X128649767Y-85230514D02*
X128649767Y-85059086D01*
X128649767Y-85059086D02*
X128606910Y-84973371D01*
X128606910Y-84973371D02*
X128521195Y-84930514D01*
X128521195Y-84930514D02*
X128178338Y-84930514D01*
X128178338Y-84930514D02*
X128092624Y-84973371D01*
X128092624Y-84973371D02*
X128049767Y-85059086D01*
X128049767Y-85059086D02*
X128049767Y-85230514D01*
X128049767Y-85230514D02*
X128092624Y-85316228D01*
X128092624Y-85316228D02*
X128178338Y-85359086D01*
X128178338Y-85359086D02*
X128264052Y-85359086D01*
X128264052Y-85359086D02*
X128349767Y-84930514D01*
X128606910Y-85701943D02*
X128649767Y-85787657D01*
X128649767Y-85787657D02*
X128649767Y-85959086D01*
X128649767Y-85959086D02*
X128606910Y-86044800D01*
X128606910Y-86044800D02*
X128521195Y-86087657D01*
X128521195Y-86087657D02*
X128478338Y-86087657D01*
X128478338Y-86087657D02*
X128392624Y-86044800D01*
X128392624Y-86044800D02*
X128349767Y-85959086D01*
X128349767Y-85959086D02*
X128349767Y-85830515D01*
X128349767Y-85830515D02*
X128306910Y-85744800D01*
X128306910Y-85744800D02*
X128221195Y-85701943D01*
X128221195Y-85701943D02*
X128178338Y-85701943D01*
X128178338Y-85701943D02*
X128092624Y-85744800D01*
X128092624Y-85744800D02*
X128049767Y-85830515D01*
X128049767Y-85830515D02*
X128049767Y-85959086D01*
X128049767Y-85959086D02*
X128092624Y-86044800D01*
X128649767Y-86473371D02*
X128049767Y-86473371D01*
X127749767Y-86473371D02*
X127792624Y-86430514D01*
X127792624Y-86430514D02*
X127835481Y-86473371D01*
X127835481Y-86473371D02*
X127792624Y-86516228D01*
X127792624Y-86516228D02*
X127749767Y-86473371D01*
X127749767Y-86473371D02*
X127835481Y-86473371D01*
X128049767Y-87287657D02*
X128778338Y-87287657D01*
X128778338Y-87287657D02*
X128864052Y-87244799D01*
X128864052Y-87244799D02*
X128906910Y-87201942D01*
X128906910Y-87201942D02*
X128949767Y-87116228D01*
X128949767Y-87116228D02*
X128949767Y-86987657D01*
X128949767Y-86987657D02*
X128906910Y-86901942D01*
X128606910Y-87287657D02*
X128649767Y-87201942D01*
X128649767Y-87201942D02*
X128649767Y-87030514D01*
X128649767Y-87030514D02*
X128606910Y-86944799D01*
X128606910Y-86944799D02*
X128564052Y-86901942D01*
X128564052Y-86901942D02*
X128478338Y-86859085D01*
X128478338Y-86859085D02*
X128221195Y-86859085D01*
X128221195Y-86859085D02*
X128135481Y-86901942D01*
X128135481Y-86901942D02*
X128092624Y-86944799D01*
X128092624Y-86944799D02*
X128049767Y-87030514D01*
X128049767Y-87030514D02*
X128049767Y-87201942D01*
X128049767Y-87201942D02*
X128092624Y-87287657D01*
X128049767Y-87716228D02*
X128649767Y-87716228D01*
X128135481Y-87716228D02*
X128092624Y-87759085D01*
X128092624Y-87759085D02*
X128049767Y-87844800D01*
X128049767Y-87844800D02*
X128049767Y-87973371D01*
X128049767Y-87973371D02*
X128092624Y-88059085D01*
X128092624Y-88059085D02*
X128178338Y-88101943D01*
X128178338Y-88101943D02*
X128649767Y-88101943D01*
X128649767Y-89216228D02*
X127749767Y-89216228D01*
X128092624Y-89216228D02*
X128049767Y-89301943D01*
X128049767Y-89301943D02*
X128049767Y-89473371D01*
X128049767Y-89473371D02*
X128092624Y-89559085D01*
X128092624Y-89559085D02*
X128135481Y-89601943D01*
X128135481Y-89601943D02*
X128221195Y-89644800D01*
X128221195Y-89644800D02*
X128478338Y-89644800D01*
X128478338Y-89644800D02*
X128564052Y-89601943D01*
X128564052Y-89601943D02*
X128606910Y-89559085D01*
X128606910Y-89559085D02*
X128649767Y-89473371D01*
X128649767Y-89473371D02*
X128649767Y-89301943D01*
X128649767Y-89301943D02*
X128606910Y-89216228D01*
X128049767Y-89944800D02*
X128649767Y-90159086D01*
X128049767Y-90373371D02*
X128649767Y-90159086D01*
X128649767Y-90159086D02*
X128864052Y-90073371D01*
X128864052Y-90073371D02*
X128906910Y-90030514D01*
X128906910Y-90030514D02*
X128949767Y-89944800D01*
X128564052Y-90716228D02*
X128606910Y-90759085D01*
X128606910Y-90759085D02*
X128649767Y-90716228D01*
X128649767Y-90716228D02*
X128606910Y-90673371D01*
X128606910Y-90673371D02*
X128564052Y-90716228D01*
X128564052Y-90716228D02*
X128649767Y-90716228D01*
X128092624Y-90716228D02*
X128135481Y-90759085D01*
X128135481Y-90759085D02*
X128178338Y-90716228D01*
X128178338Y-90716228D02*
X128135481Y-90673371D01*
X128135481Y-90673371D02*
X128092624Y-90716228D01*
X128092624Y-90716228D02*
X128178338Y-90716228D01*
X129841624Y-84030514D02*
X129841624Y-84459086D01*
X130098767Y-83944800D02*
X129198767Y-84244800D01*
X129198767Y-84244800D02*
X130098767Y-84544800D01*
X130098767Y-85230515D02*
X129198767Y-85230515D01*
X130055910Y-85230515D02*
X130098767Y-85144800D01*
X130098767Y-85144800D02*
X130098767Y-84973372D01*
X130098767Y-84973372D02*
X130055910Y-84887657D01*
X130055910Y-84887657D02*
X130013052Y-84844800D01*
X130013052Y-84844800D02*
X129927338Y-84801943D01*
X129927338Y-84801943D02*
X129670195Y-84801943D01*
X129670195Y-84801943D02*
X129584481Y-84844800D01*
X129584481Y-84844800D02*
X129541624Y-84887657D01*
X129541624Y-84887657D02*
X129498767Y-84973372D01*
X129498767Y-84973372D02*
X129498767Y-85144800D01*
X129498767Y-85144800D02*
X129541624Y-85230515D01*
X130098767Y-86044801D02*
X129627338Y-86044801D01*
X129627338Y-86044801D02*
X129541624Y-86001943D01*
X129541624Y-86001943D02*
X129498767Y-85916229D01*
X129498767Y-85916229D02*
X129498767Y-85744801D01*
X129498767Y-85744801D02*
X129541624Y-85659086D01*
X130055910Y-86044801D02*
X130098767Y-85959086D01*
X130098767Y-85959086D02*
X130098767Y-85744801D01*
X130098767Y-85744801D02*
X130055910Y-85659086D01*
X130055910Y-85659086D02*
X129970195Y-85616229D01*
X129970195Y-85616229D02*
X129884481Y-85616229D01*
X129884481Y-85616229D02*
X129798767Y-85659086D01*
X129798767Y-85659086D02*
X129755910Y-85744801D01*
X129755910Y-85744801D02*
X129755910Y-85959086D01*
X129755910Y-85959086D02*
X129713052Y-86044801D01*
X130098767Y-86473372D02*
X129498767Y-86473372D01*
X129584481Y-86473372D02*
X129541624Y-86516229D01*
X129541624Y-86516229D02*
X129498767Y-86601944D01*
X129498767Y-86601944D02*
X129498767Y-86730515D01*
X129498767Y-86730515D02*
X129541624Y-86816229D01*
X129541624Y-86816229D02*
X129627338Y-86859087D01*
X129627338Y-86859087D02*
X130098767Y-86859087D01*
X129627338Y-86859087D02*
X129541624Y-86901944D01*
X129541624Y-86901944D02*
X129498767Y-86987658D01*
X129498767Y-86987658D02*
X129498767Y-87116229D01*
X129498767Y-87116229D02*
X129541624Y-87201944D01*
X129541624Y-87201944D02*
X129627338Y-87244801D01*
X129627338Y-87244801D02*
X130098767Y-87244801D01*
X129627338Y-88659086D02*
X129670195Y-88787658D01*
X129670195Y-88787658D02*
X129713052Y-88830515D01*
X129713052Y-88830515D02*
X129798767Y-88873372D01*
X129798767Y-88873372D02*
X129927338Y-88873372D01*
X129927338Y-88873372D02*
X130013052Y-88830515D01*
X130013052Y-88830515D02*
X130055910Y-88787658D01*
X130055910Y-88787658D02*
X130098767Y-88701943D01*
X130098767Y-88701943D02*
X130098767Y-88359086D01*
X130098767Y-88359086D02*
X129198767Y-88359086D01*
X129198767Y-88359086D02*
X129198767Y-88659086D01*
X129198767Y-88659086D02*
X129241624Y-88744801D01*
X129241624Y-88744801D02*
X129284481Y-88787658D01*
X129284481Y-88787658D02*
X129370195Y-88830515D01*
X129370195Y-88830515D02*
X129455910Y-88830515D01*
X129455910Y-88830515D02*
X129541624Y-88787658D01*
X129541624Y-88787658D02*
X129584481Y-88744801D01*
X129584481Y-88744801D02*
X129627338Y-88659086D01*
X129627338Y-88659086D02*
X129627338Y-88359086D01*
X130098767Y-89259086D02*
X129498767Y-89259086D01*
X129198767Y-89259086D02*
X129241624Y-89216229D01*
X129241624Y-89216229D02*
X129284481Y-89259086D01*
X129284481Y-89259086D02*
X129241624Y-89301943D01*
X129241624Y-89301943D02*
X129198767Y-89259086D01*
X129198767Y-89259086D02*
X129284481Y-89259086D01*
X130098767Y-89816229D02*
X130055910Y-89730514D01*
X130055910Y-89730514D02*
X129970195Y-89687657D01*
X129970195Y-89687657D02*
X129198767Y-89687657D01*
X130098767Y-90287658D02*
X130055910Y-90201943D01*
X130055910Y-90201943D02*
X129970195Y-90159086D01*
X129970195Y-90159086D02*
X129198767Y-90159086D01*
X130098767Y-90630515D02*
X129498767Y-90630515D01*
X129198767Y-90630515D02*
X129241624Y-90587658D01*
X129241624Y-90587658D02*
X129284481Y-90630515D01*
X129284481Y-90630515D02*
X129241624Y-90673372D01*
X129241624Y-90673372D02*
X129198767Y-90630515D01*
X129198767Y-90630515D02*
X129284481Y-90630515D01*
X129498767Y-91059086D02*
X130098767Y-91059086D01*
X129584481Y-91059086D02*
X129541624Y-91101943D01*
X129541624Y-91101943D02*
X129498767Y-91187658D01*
X129498767Y-91187658D02*
X129498767Y-91316229D01*
X129498767Y-91316229D02*
X129541624Y-91401943D01*
X129541624Y-91401943D02*
X129627338Y-91444801D01*
X129627338Y-91444801D02*
X130098767Y-91444801D01*
X129498767Y-92259087D02*
X130227338Y-92259087D01*
X130227338Y-92259087D02*
X130313052Y-92216229D01*
X130313052Y-92216229D02*
X130355910Y-92173372D01*
X130355910Y-92173372D02*
X130398767Y-92087658D01*
X130398767Y-92087658D02*
X130398767Y-91959087D01*
X130398767Y-91959087D02*
X130355910Y-91873372D01*
X130055910Y-92259087D02*
X130098767Y-92173372D01*
X130098767Y-92173372D02*
X130098767Y-92001944D01*
X130098767Y-92001944D02*
X130055910Y-91916229D01*
X130055910Y-91916229D02*
X130013052Y-91873372D01*
X130013052Y-91873372D02*
X129927338Y-91830515D01*
X129927338Y-91830515D02*
X129670195Y-91830515D01*
X129670195Y-91830515D02*
X129584481Y-91873372D01*
X129584481Y-91873372D02*
X129541624Y-91916229D01*
X129541624Y-91916229D02*
X129498767Y-92001944D01*
X129498767Y-92001944D02*
X129498767Y-92173372D01*
X129498767Y-92173372D02*
X129541624Y-92259087D01*
X130055910Y-92644801D02*
X130098767Y-92730515D01*
X130098767Y-92730515D02*
X130098767Y-92901944D01*
X130098767Y-92901944D02*
X130055910Y-92987658D01*
X130055910Y-92987658D02*
X129970195Y-93030515D01*
X129970195Y-93030515D02*
X129927338Y-93030515D01*
X129927338Y-93030515D02*
X129841624Y-92987658D01*
X129841624Y-92987658D02*
X129798767Y-92901944D01*
X129798767Y-92901944D02*
X129798767Y-92773373D01*
X129798767Y-92773373D02*
X129755910Y-92687658D01*
X129755910Y-92687658D02*
X129670195Y-92644801D01*
X129670195Y-92644801D02*
X129627338Y-92644801D01*
X129627338Y-92644801D02*
X129541624Y-92687658D01*
X129541624Y-92687658D02*
X129498767Y-92773373D01*
X129498767Y-92773373D02*
X129498767Y-92901944D01*
X129498767Y-92901944D02*
X129541624Y-92987658D01*
X130098767Y-93544801D02*
X130055910Y-93459086D01*
X130055910Y-93459086D02*
X129970195Y-93416229D01*
X129970195Y-93416229D02*
X129198767Y-93416229D01*
X130055910Y-94230515D02*
X130098767Y-94144801D01*
X130098767Y-94144801D02*
X130098767Y-93973373D01*
X130098767Y-93973373D02*
X130055910Y-93887658D01*
X130055910Y-93887658D02*
X129970195Y-93844801D01*
X129970195Y-93844801D02*
X129627338Y-93844801D01*
X129627338Y-93844801D02*
X129541624Y-93887658D01*
X129541624Y-93887658D02*
X129498767Y-93973373D01*
X129498767Y-93973373D02*
X129498767Y-94144801D01*
X129498767Y-94144801D02*
X129541624Y-94230515D01*
X129541624Y-94230515D02*
X129627338Y-94273373D01*
X129627338Y-94273373D02*
X129713052Y-94273373D01*
X129713052Y-94273373D02*
X129798767Y-93844801D01*
X129498767Y-94573373D02*
X130098767Y-94787659D01*
X129498767Y-95001944D02*
X130098767Y-94787659D01*
X130098767Y-94787659D02*
X130313052Y-94701944D01*
X130313052Y-94701944D02*
X130355910Y-94659087D01*
X130355910Y-94659087D02*
X130398767Y-94573373D01*
M02*
